<mxfile host="Electron" agent="Mozilla/5.0 (Windows NT 10.0; Win64; x64) AppleWebKit/537.36 (KHTML, like Gecko) draw.io/24.7.5 Chrome/126.0.6478.183 Electron/31.3.0 Safari/537.36" version="24.7.5" pages="2">
  <diagram name="第 1 页" id="Gphi9goYqikDVyR3SY3r">
    <mxGraphModel dx="1434" dy="844" grid="1" gridSize="10" guides="1" tooltips="1" connect="1" arrows="1" fold="1" page="1" pageScale="1" pageWidth="1169" pageHeight="827" math="0" shadow="0">
      <root>
        <mxCell id="0" />
        <mxCell id="1" parent="0" />
        <mxCell id="0LWopOkagk5XhUzyKvVM-11" value="" style="whiteSpace=wrap;html=1;aspect=fixed;dashed=1;" vertex="1" parent="1">
          <mxGeometry x="710" y="90" width="150" height="150" as="geometry" />
        </mxCell>
        <mxCell id="0LWopOkagk5XhUzyKvVM-10" value="" style="whiteSpace=wrap;html=1;aspect=fixed;dashed=1;" vertex="1" parent="1">
          <mxGeometry x="160" y="90" width="150" height="150" as="geometry" />
        </mxCell>
        <mxCell id="0LWopOkagk5XhUzyKvVM-1" value="Linux - Ubuntu" style="image;sketch=0;aspect=fixed;html=1;points=[];align=center;fontSize=12;image=img/lib/mscae/VM_Linux.svg;" vertex="1" parent="1">
          <mxGeometry x="749.35" y="102.2" width="71.3" height="65.6" as="geometry" />
        </mxCell>
        <mxCell id="0LWopOkagk5XhUzyKvVM-2" value="Windows" style="sketch=0;pointerEvents=1;shadow=0;dashed=0;html=1;strokeColor=none;fillColor=#505050;labelPosition=center;verticalLabelPosition=bottom;verticalAlign=top;outlineConnect=0;align=center;shape=mxgraph.office.concepts.application_windows;" vertex="1" parent="1">
          <mxGeometry x="184.2" y="110" width="110" height="50" as="geometry" />
        </mxCell>
        <mxCell id="0LWopOkagk5XhUzyKvVM-6" value="" style="image;aspect=fixed;perimeter=ellipsePerimeter;html=1;align=center;shadow=0;dashed=0;spacingTop=3;image=img/lib/active_directory/generic_server.svg;" vertex="1" parent="1">
          <mxGeometry x="340" y="100" width="78.4" height="140" as="geometry" />
        </mxCell>
        <mxCell id="0LWopOkagk5XhUzyKvVM-9" value="" style="shape=image;verticalLabelPosition=bottom;labelBackgroundColor=default;verticalAlign=top;aspect=fixed;imageAspect=0;image=data:image/png,iVBORw0KGgoAAAANSUhEUgAAAbYAAACCCAYAAAAqle1/AAAAAXNSR0IArs4c6QAAAARnQU1BAACxjwv8YQUAAAAJcEhZcwAADsMAAA7DAcdvqGQAAD0VSURBVHhe7Z0HfFPV+8afNm2696CFsgRkCyKuH6KCouLEAYIDceJGEHCBorgV3H9FEVRwgAoqOBAZgiwBka1sCrSU7t10/s9z7k0XaZvbJm0az5dPSHKTZtzce57zvucdHgDKxEWhUCgUCrfAU79WKBQKhcItUMKmUCgUCrdCCZtCoVAo3AolbAqFQqFwK5SwKRQKhcKtUMKmUCgUCrdCCZtCoVAo3AolbAqFQqFwK5SwKRQKhcKtUMKmUCgUCrdCCZtCoVAo3AolbAqFQqFwK9yuCLKXlxf8/fzg5+MLs7e3vO/pWaHfZrM3vL1M4pt7IDc3Dynp6SgsLEKBpQBlZaoetEKhUDR33EbYAvz9ERIUBD9fP32LcXJyc5GTl4vcvDx9i0KhUCiaG81a2EwmkxCzYAQFBsJL3K5OTHQELr7gHLRpHYuoiDAEBvghOTUdqWmZOJ6Ugl17DmDvgXjk5FQVsrz8fJxITUFJSYm+RaFQKBTNhWYpbGazGWHBIUKoAvQtVel3Tm/cd/sw9O7RWd9SO5u27MTCn1bg1+VrkV9gkdtKSktxIiVFiJyy3hQKhaI50ayEzeTpicjwCClotNb69euHa4Zcg8SEBLz++jT07NYJEx4ciT69uul/UQPiG5eVlcqLh7jITR4eyM4pwMy5CzH7i+/lNpKano6MrEz9nkKhUChcnWYjbMGBQYiOjISPjw+uvOoqDBt2A7y9vfHG9DexedNGPHDXcIy88Ur92RWUlhShjJfSEpSWFnODuK2JmS08PE04npqFx57/ANt37ZPbKGwUOIVCoVC4Pi4vbN5e3mjfti1Kiotx6aWXYPTo0fA2e2PVqj8wd84c+JpNeOvFCTilXZz+F+ILCfEqKSpAaWG+tMrqy9Ovf4Yfl62Tt9MyMpCemSFvKxQKhcJ1cWlhY9h+yxYxCAkJwYSJ49G3b1/s27cfy5evxNJfl+CCc3vjpafH6M/WKCnMQ3FBrrjlmK81/cOv8fnC5fJ2cloqsrKz5W2FQqFQuCYuK2yMdIyOiETXbt0w5ZnJCAwKwurVa7Bt+w7s27MHXTvG4oWnHtKfrVlpRflZ0u3oaJ5+7RP8uHyDvH38xAnkqoAShUKhcFlcUtiYWN26ZSuc2rkz3nnnLRTkF+CbBQuRmpqG9LQ0ZKUlYd7Hr+jPBkqLC1Gcn+mUBGsPTy8Ulnnipnsm40B8AkpLS3Ek4RiKVSqAQqFQuCQuKWwxUdHS/ThnzqcICwvDzI9nI+FYAsxmH2zauB5Lv3kfQUFaqH+ZELXC/IyTvoUHq4WZPIUFV6xvMY6nty+8/YLl7cTjJzBk5Djk5uZLi42Wm0KhUChcD5cTNob0t2vdBt27d0eXrp2xYvlKpAkrzcq1gy/E1EmaC1K6H3PTqlhqHh6e8PINEKKkVSBhVGRxXka9rDlzYCRmzv0OS5avwT97DyE40B9ZejL3seOJKLBoOW8KhUKhcB1cSthY1zEmMkqG9FuJio7C+f3PR8eOHfDVV/PQu1t7vEBhE0JVmJsuxK3CIvM0ecHLPxTJqRl4afrH2LLjXyFEubhj+JW4e/gg/Vl2IgRy14ETuPX+yfqGqmTlZIv3SdXvKRQKhcJVcBlh8xKi1Lply/KCxS3F7QcfegC9evXC4cPxSEhIxI+LFyHlRCJ+nv9/KM7PkiH9FXgICysc23bvx72PPo/s7FxEhocirmUU0jKyMefNCQgM8Nefax+bt+1HZnYWzj69KxKSUvD7+m34YuFysS1XrrUdOnrEKet6CoVCoag/LiNsLaKiEOivrZtdOOACPPHEE9ixcxfWrFmHggJNwI4eOYz9e/di/ZJPUJhT4Z4kJrMvjiRlY9gdExAeGoiXn7gL3U5tpz/qOA7EJ+LO8dOQJcQtMSkJeQX5+iMKhUKhcAVcoh8bk7CtonbBhRdi3KOPYuF3P2DZshXloibx8BDP80NJ4cli4mky48U3PhZWWgjmvv2EU0SNnNImFq9Nukfe9q3kMlUoFAqFa+ASwubn5yuv/f39MWbMQ/hOiFp8/BG5rTKWgkJERoahpOhkYWPV/nUbt2La06MRrEdMOou+p52Krp3aiM+rfW6FQqFQuA6uIWw+mkCc178fDh46jOPHk+T96uTn5qJLhzY2nadlRQW47KJz0KFtS32Lcxn4v9Mb1PtNoVAoFM7BJdbYWsXESrfeI2PHIDklDenptmsyblqzBveOugrXXHKOvqUqDPWvrTbk8RNpCA0JFO9l1rcYY8uOfejZpT28vEz4bfVmPPbiTBw8Ei8DSRSK5kiXLl3QoUMHeZtRySxbFxys5W5GRESUP8agrtatW8PPT5vMsQB5QEAA9u7dixEjRmDz5s1ye1MTHR2NRx99FMOGDZMBaGxxVVxcjGPHjmHevHmYNm0aTqgcVLfHJYStbVxr2Sj08SefwLZtO/StJ7Py1yWYOW08OndsrW+xHyZb/7v/KLZs3YlhV12gb61KWnqWbEZqNnvrWyrg3/++fgcyUpNx1SXnYteeQ7h1zCs4kpiAwsJC/VkKRfPgiiuuwJw5c2QBhIaQnp6OW2+9FT/++KO+pekYPHgw3nnnnXIxtkV8fDwefvhhfP99RWsqhfvR5K7IyPBwmZRNCvJqr8GYJwSkPqLm7R8iK4h07doZy9du0beezOFjJzB3wTL9XgUeJm/59927dMTsr5dIC826jmerc7dCoWhcbrjhBsyePbtWUSNt2rTBzJkz5fMV7kuTClt0ZBRCgjS3B7EU1lzJw1JgQUA9XIgeHiZ4emnRi2xO2rZNHFas3SrvV6ddXDS+/WkVSqrVgTTpfx8bGy0tuh9/24AgPScuqIYu3gqFK0NLa+vWrUhJSZGuuuYMXaRjx45FixYt9C21ExkZifHjx8u/U7gnTSZsMdHR5aLQyVtz/RUXaYKSm5MjT7jKof5l4l+Al3HrqKysBCXF2utw/W3kDZfhmdc/ka7E6oSFBks35PdL1upbNEqKLbJzQGF2Ks47szve/eQ7+PpqIhvgH4DIsHB5W6FoLqxduxYDBgxAVFQUWrVqhXvvvRf//POP/mjzYtCgQbKQgxF69uwpXZcK96RJhI2dsAP8NIvnpYhQ9PXVLKI1a9Zg2dJf8fvKFfhz/Tos/20pdm7fLi0oX19fZFrq15Jm985dyE45JoQpBa2iAjGwX288+twMm0Efw68ZgLdnL0R6Rpa+BXj1nbkYPGIc+lx2D2bM/REZ2bk4kZwOsy60IcHBCAsJkbfdiTFjxiA/n81axbTCyZcFCxbo76pobBhMMWPGDDnQb9y4Ud/afGAADANZjMDUoq5du+r3FO5GowsbrZuggEB5+6nwEAwK8EeSXoF/165dsFgsaBMXg97dT5XbDh8+hLVr/pDiFiwOxoQkY/UZc3LzMPz+F/C/IWMw5M5ncM/E6bK3Wk5ufnn5rspcPehceIh/k1//VN8CnCusNEZCkn7i9hfvPonWraLh4+2Fnj5ecnt4aBiCA7XvpVA0Rw4dOiTXn/LqWOt2NTp27KjfMkbbtm31Wwp3o1GFjR2xad2Q24ICcW1gAFYKgVmRr62t9Tu7N1YtnoWf5r2HuR++hN8WfIA2rWKQnZWFo0eOICgiEpu3GHOXsD7k/bddjQB/XxxJOIHN2/eic4fWeHb8bfozquInrMepE2/Hus278OnXS+S2887sge9nTcXmn9/H2889WJ4rV1xahv7i+X19NFdqZHiE7CXnLtAVzImGs2FUaU5Ojn5P0ZRs2LABiYmJ+r3mwb59+/Rbxjh8+LB+S+FuNJqwMXCDwSKEYvBQmCZwK/O19a+up7bDjOmT2UINX32zCF/MXyTXvF6bOk4+npKSDJOwkDb/WXM6QE3cOXwwfv9muhQmXlhya2C/0/VHT4ZCNvzqAXh71nfY9Pe/+taTybcUwldYfRPCgtBafHAPD4/y7+gO0D0VGhoqXTajR4+WIdKpDexoQLdjQkICPv/8c/mafG12cxg5cqT+DEVTwoASBpY0J7g2mJubq9+zD1qlu3fv1u8p3I1GE7ZoYW0xrD9CXJ6JCJXbOMjt0nPAHn3gNjFzL8LEKdPx5oyv8OJbn+Duh59Bu5hQdOvUDknHj2Pvnj1IyGqcmf0jd10nk7EfnfoBdv57cqAJc95IoBAzH3EZL8SN+JjN0i3pTnDg+PDDDzFkyBC0a9cOU6ZMQUaG7ST62mD03XvvvYfOnTvjlltuka/ZXAMWFK7D0qVLpSAbYfv27fj555/1ewp3o1GEjQWO6YYkz0WGIVTP/UotKUZmaal0/53T9zTk5uXi9ae0AsNMok5KScd3P63AWad3ltu6dGiNEdddLG87G29hHb466R5ZpWT042/gn/3x+iMa2bnaOkS4vk7XVjz/tiDtO4YGB8vCzu4IXYbPPvssXnvtNcOJ6UePHsVnn32m3I4Kh3LkyBG88cYbSEqyXYqvOoy4fv311+XfKdwTpwsb3XMR4Vo4/JAAP5ytR0Bmitl7QVkpzOLxUD3ZOTjAV/ZOaxEVjsfuH47H7rsRq9ZvxUO3D5EuxM/ffRID/mcsrLchRAvL8v2XH5HBJKMfexNbdx/QHxGfP1sTtjATi7do8Pt18DbJ7xwVEaFvdU/++usvwwLFAaU5Rt0pXJ9vvvkGt99+O/bv369vsQ0rj9x1113y+Qr3xenCFh4aKqtzhIjB/uFQLSTeUlqCbL3zdZCweBKTtd5q7IbN6ENaZqTfWT3Qs+sp8rYzMfn4wxwgxLdCo8phm5pbb7hYRlH+uaXCJ38wXltgt1qfhIJ2f4gWGenn61veiscdSU5ORmZmpn5PoWh66Fr83//+h1dffVVGeFo9CnSBM1CE288880xVTus/gFOFjeH0ocGamI0NC0awiUWKy5DG8H4hAqSdHka/+e9dQEmJ7KcWoQeWkLtvukK/5TxMZj/xeTyFrtneHUGBWs5d724V5Xp27D6IU4R1Vp0O3l64Qm9nEyZEXaFQNB7MyXvsscfQvn17GZTEySYLNnNtmNtVAeT/Bk4VNq41kTghXpfrJagyhLVWuWBVT73g8JffVizkDq2hSLEz2LnnMEoKi1CUkyZE9+SE7e3/HMQPv66TpbT69Oykb2VAxQHEVbLWKjMs0A/MbmPovzURXaFQKBSNg9OEjTMlax3IO4OD4CnuFwnhyNWTsa309/dBoDDeflm+FkeOa6HkLVs03vrUd0vWYtu2bShDhajRqlyx5m/c8tBLGDX2VSFOvvjqvadkyoKVXYcT0dZLS86uToiwTAeJ70VC3bAiiUKhULgyThO2wIAA6YpsIQb5q3RXXkYlF2RlrhbWEHng8Wk4nnJyDg3LW1kKqwqio2D1kEmvzcYn85fI4sgsmTXkzqcx/vkZMv3glSfvwkevjUOsEFuLuH/46HH8tWOv/NsuZtsWG7lW/07sM+dOSdsKhULh6jhN2KwFjq/010StoLQEFmEJ2eKqAF8hgB6IP3YcI8e8IqyoNcjIysHx5DS8/9kiXDziMaTnO6dt3A1XnI/oqFDMnvcLZs37GemZWbjzxsH4ZsYzmD/jaVzc/wwpaHO+XYqbH3oR4aHB+HnZBvm3nWz0bbMS7WXCaWbNoqPIKxQKhaJxoPnkcMVgIjabh9Id+V3LaMR5eSG5qBCWWt4qvqgYT6ZmIsfGU+4eeR3GjL4Zlqxkcc/Yx/U0eaFMfI6y4iJZZ3Lqm3NlZZEzenXCqe3jbNaLJHn5FsQnJGH1hu2Y98NKIXg5eG7CKFx8Xh8MGjYecUKoX4msPTjkt9wCvJuVq0VlHTuqb3UPzjjjDHz99ddykd5eNm3aJKPSFK4NUzLYSdseXKnRqEJhxSnCFhIUJOsmnurtjS9io1BYVoITdvR8OlpUgllCCP4SFpKVtnEx+HHee/J2YU4qyoSg2I8HfIKjUKq3nYGwGGkNvvTul0JsSmD29kK0EKfoiLAqHtJnxo3EHeNeQ4peXYQ8OGoIbr/xUvyyYiOeenUWhgf6YXhQ7YEhOaWluCVJc626W6dtVxQ2VnkfMWIEzj//fFndJEgch6z6zgmWFU4yWH4pKysLe/bskR0lvvzyy3pXQOF+iImJkbfDw8PRu3dveOlrr506dSrvUB0cHIyWLbUao5xMBQYGIjs7W3ZQ+PTTioLbleH3oWiwvQwL/YaEhMBs1tolcR2Y34NJyatWrZKJ7ytXrpSPNZTmIGzcfzyWWKWfsPVO9+7d5W2uhVeu+M/WPBF6Xql137MO6uOPPy47btcGX8favNTPzw9nnXWWjLYkcXFx5b8pH2N/N74+jze+N7uHTJ06Fc8//7x8TnUYqcmGp+xmzuOVxwq7mFjh75uWlibrd/IYdWYHDO6Tyy+/XH4WtgDid+E26/FGrMccO36wPiePE6ZY/PLLL/ozgCeeeEIWcGAkalNOZJ0ibDFR0QgQB9xdwYG4NzQYGSVFcpC3l7SSUiwW1s6C3Hyc0jYWP3zxrtxelJcpRcoI5qBIFOVmYO43S9C6VRTOP/s0HD+Rhtnzf8GPyzYgv+BksfngpTF44uWPpZUWEhSAMXdei2su7ScfGzXmJWzfE49pkSEytL8uJgsrdHthMVLT05AhBlN3wVWELTo6Wibm8kIhqckCrw0OQHv37pUdmHmxJyScgvTyyy9XGYiMYh1c33rrLX2LBkuXcYDo06dPuUjWBb8DRXrChAlyIGwIjhQ2DpRz5swpF/j6cvDgQQwdOhSbN2+WA/y1116rP1J/WD1n4sSJ+r2qOOpz23qPs88+W4pd//79y0WyLigqO3fuxOTJk/Hdd9/pWxsOPws/3yWXXCKFrD6w7iaPGU7Q7rzzTvTrp42VTSlsTlljY3IyOZM/GlXegKiRcJMnrgnQfvADhxORpxdK9jSdvKbFwJKcvHz93smUCSFk4nfPru3xybwlSE7LREx0OJ548CYs/fJVvD5pNO4beRXuufmK8gsDRcbceT1mT5+AJZ+/XC5qG//+R4paNyFo9ogasaYzNGQAVJwMT8JnnnkGO3bskALDGW91UaN1xkoU69evly2ReN8W/Dv+PV+HAydPzqaAIs2Z+bx586RlYK+oEX4HDpScPT/wwAP6VoUrwWP2lVdewfLly3HxxRfbLWqEVmCPHj3k8cHXaCg81liI/Pfff8d1111Xo6hx8mU9h3hhGbLqnidazRdccAFmzZpVLmqEx2R9xbKhOFzYWASYX4jDeS9fMwqEsNXHJAwxmRAlBI5s+nunvPawUX+RHQBef3++fu9kivKz5fVpXU/Bg3cMwahHXsGmbXvkDJc1Kgf06427RlyO0bdcWX6Ji43CVYPOkX/DmpFWGMhChgZqEY/2cJre0sbPRwmbo6CrkdYJhY1uJltQ8C666CLpwjv33HOlm4r3ub026F764IMP8NVXX8mTvybY2qU+VeVr4vTTT8fixYtx4403VnH/GIXdGCjQ999/v76laeFMfvz48XIQrW1yYQtaKaxwQwuNlu2//2qdNmhdHz9+3NBrGYWWKD8vq+vwczQUuh2/+OILuS+s7tP6wAnyI488Iquo1BeeP8uWLcNNN91Uo7iyyDndqOxZZz2HeGnTpo2cBE6fPr3OTh+0dvncpsAJwqbtqB4+ZniJWUa+oTWxqpwnXoP8sW6LvGYgSOX1EivBwQFYtHS9fq9m+vTohIHnnY7Rj72BS295Am/NXIAPP1+Mpas2Y9PWPVi7aRe++n4FZsxdLK2zyvAx1orsafbC6UKw7aWLbrFJsXfTwsiNCa0RlkQ67bTTbB4LhDPMu+++W649VYb3H3roIVmMuTZoKQ0bNky6JTkg2WL+/PlSjDgjZedpCm19B8BrrrkGixYtkm6bmr6TEfiZOPjRXdzU0K3LmTy7OVgnF3XVc6Rri2LGNR9OLq6//nq5v621SVlBJDY2Vrqe6bKl0DlCfCqzdu1anHfeeXKiwDJddP/VV0jPOeccecxeddVVchxoKJz4jBo1Sh43RuFn4e9B668muK7HllJPP/20Tbc8y5U9+uijUiDpgqaR4Go4XNi4aEja6qWyLDaqedjLJbo7cvES6wDlAU+vk2cYtw+9BB/MWYQ9B+qOPBx39w245bqLZNuZz75dKvPWHn9ppqzg/9Dkd/DaB/OxeNn68maiVt6Zrfm1RwcbN61j9INZ5bM1jHHjxsmZKgebmuDgR1cN3Sa2YIDFDz/8UOdASIGhYE2bNq1Odwrdf5dddhkWLlxoeIDlOtonn3wigx+sVHb/cJ2C1oPR1+Us+4477tDvuQ4snl1TjVEKGgddCjzFrHJQgi04wNI6pQBROBwtblb4O3BNjy2XjIobg0tYcJkTMSt05dGlx9f9888/ZQCQUXGgp+Kee7ROKPbCSRq7IFiDYWqC7klOJOqCFu3w4cPlBNCZ1nN9cLiwWQfv1mLWWyxErSFfN1a8xtBAX2Tl5GLJirVym8n7ZJce3ZEM8Hho0jsypL82OGCNFeK24KNnMOau66qsrd1z85VyzW3++5MRXqleJa26PQeOIMLTA3E26kPWRUtd5K2irzAOo8c4O6/LjfP333/LdYja4IBpTz85HisULAam1AUFlYECdVmDlaFbiQ1WrULNv6XLrbL7h4M83T9c4DfSA88qzK5gtVWGgzEjDSvDQX316tUYOHCgXN/kgGkEWhVjx46VPdacCSc5dbmyq3PzzTeXT1rouqMLj+45/qb8fRm8waja2267DceOHZPPsxf+Pa1Ae+FEp66goJKSEkP7kcc9vQO2Jos8V2ubhDoTx1ts+oJ3WzGIW0obPoO60l9bz/rwE63NhIeXWbokq3PJBX1xw5Xn4/4n3kJqWt3Rh0wjGHn9oCpra6NvuUKuuXHtzcqOfw5Kq46kiu/za54WyGKEGH2t0LpvFMag+4Qz88jISH2LbXhS0t1YVzsduq7s7d3Fk5NtTmpySVbGamEZhbNdBoxQhGhtVnf/8Puwfxgj6WjN2QvddbRmXAVbkxN2U6fY0a3VkGhOWm90HzoTWlm//fabYcuQz6engN+RLjx+1urMnTtXeiToBrQXigZf0x4Yvk8RrCsgiZMMI8cY4fHJ71X996PLtKmC5hwubEzOJuwszdqQDcUaUfnvvsP4deU6edvkY7uSBzsBnHV6V9z92HQZ/dhQlv3xF8Y994F+T+P/MnPxl40UgdoI0Xu2eeoCpzAGT5pTTqm7fREDOeyZbTLow56Qfiunnnqq3esZzO8xAkWNLi66dOr6TDNmzDAknBxUqltHTQVF7d133y2fnHAAZQDDoEGD8PHHH8ttDYV5gc6GVrXFYn/KEUWNLmqKSl2WKN1/dblfK0OrvLKLszbo8rYnNYdepfocMxRrBnPZO2F0Ng4fab08tUHcR+z0hqyvkW+z8zEupUKgpr01S15znc3T23Y0z5MPjUC3jm1w84MvyoCP+sDO3WOefg8TX/gIqelZMAdHoFX/q8vf87n0bCw3YLkFeGi72RELx/816Mphjg1P4rrgbLeuwAQrdUV0VYYCwXBmR8NBjy6cSZMm6VtqhzNjhorTMrUXawJxU8Lf8P3330eLFi3kfa6l0QJlvp5Rt2Nzg1YMJ2Z1eRGsUOyNRNpyomBPSD0nhvZaT3QJX3jhhfo9+/n1119lkI1Ri9YZOHykLZU532IwEK9cXM8vuEyIxrjkdMzJyQPlw9NHc10cO5GG8ZOnydvevsFisLO93vX8Y3fg+svPl8Egk16ZJQNF7IEFjp9/ay4uv/VJ/LFR86X7x56CNgNvQEB0a3ntHaBV639bWG7zsu07AP11sTfpAqewD56wjKZj1Q57oLDt3l3RDLY22HjSCF27dnW49cOZvz2u08rwcxtxFTW1sHFd5+233y631Bi+z8hURjYa+d7NFa4d2nI91gR/XyP7xd6Qerql7c2bY8oLXaM894zCQCjrOjOrsXCtuClw/Eirz6yp2qzRaITtliI8nJyBd4RoHCguhZcQkeg+F6LjlbejZT+t4Sjb2zz8+CvYd/AIvAPDhBV0ss84SwjOGT07YdSwS7F+y25cMWoSpkz7FOv/2oXsnKrJ3Lv2HMLML3/CrWNexnV3P4uFv6zRH9HISzyAI6t+QFFBHsyBoYg7f4gQN22g/TKnAK+m1e3+oPVK7LE6FBVwfchI8AMHBHsHhaKiirJt9sCwc3vW2ZwNXT3NpTQbgwpYVYWlxggHeLokGfmosA0DhGjROhpa+UYsKQa8sJII3fachNSW01mZ+q4zOxrHW2z6mlimfm0PGWKnT0/PxuS0LMQXl8Bk9kXMmYNwymW3ILS9Vv8tMKYdWvS9SN5evvpPDLl1LIaNmojpM7/D0tVaHhovbD8zYNh4Gb7P2yyLxfYzi35bjweeegcXDh2HS4c+ihG3PYUzBt8nBO0VmXi9a0/NM3hLWiKO/bkUxZYCePsHSnGj6JK1lkI8n1q7RVigB9GUuoCJ3pxgzlNdASOVMeJeNApnn/as8yk0WC/whRdeqOIm42/ZVAm7/3WY0G5kbZBw6YS/FwO34uPjZa4mo3Pr8lywkgkn8TxnqpeLayycJmz2ltFanmfBA8mZWKUHZAS17YJ2l96C4DanyvuVCRGPBbXtJm9z9vzEs1MR2rIj9iWWYPa8FZgw9UOZbxZm8sQtQQG4NsAfnWyUvuodFowTqRmI9DLhzMhQ3Ny7M14YMRiXtqtw2zwSEoRFsdHY1KYlevmYUZh2HGnHDiI/K12IWxDaXjQUftGt5XM3CeGcl13zLCtfF7RSBwTT/JdgWSlHWrm0/lgDkBejYcj8HCpdwz4Y2ckBsHpqBkWOs39GuSoaF1ZtaYglSDcmE9X523JdlIFO3377rSxkYM8aX2PjeGHTB/HcOqwT9mZ7U1hpbwuLis/19gtAXP8hiBVWmUmvXmKltLQEuZmpSInfB1N4C/hEt5FujflffYVrrrkaYx+biLkLF+Lzr7+Wz58cFoJHxOWpiFB8KcRpXkwUbhZCF6APkkfSszDhxsvw9azn8MGcl3DbgyOwYMlaLDmUgPN8zVgQG4VhfL7YO1klxbgswFfY8sUoseQhOyURmUlH4WHyRuv+V8M3XKvsvrqg5tlQnr4vyhyQ/vBfwZq/ZQQm0UoXeA0XukhYtooXViZROBYOcDNnzpRh6zUFKtDqZaFmVxwM3Zk//vjD7sCquuAkjwnitMyYpsKxmL87K/G4Cg4XNmvE1vHimiO3VtFKO5GBlbqVFty+G9pecgv8oyuqL5CSokJkpyYhNX4vcsV1abH2fL9WHRDU5WysW78RFw+8CM8+MwXfzp+HX3/5WT5+uphdWITFSFHiJcrkgdEhgZgvBGuwvx/+zcnDU1/8hAEjNXfkJXdNwea0TLwVGY43oyPRRszMU0qKkCUElZfWutVXatHW5yy5WUg7uh/FhQWI6nmu3OZfS2DICX2fFBuIZvuvQ58+27Qomgf8vbgmw2T22nKlOCiyVBZLNikaD649sxuHM9Zn2RKIifXr1q2TVVa6ddO8ak2Jw4WtqFhblD9qQ9iyhdg8mpyB6cJKSxG3TV5mYaVdg5g+A+BZ6WQoLMgTVtERpB7Zh3xhqZXZcGua/PxREtcNge17YMmyFXhs4uN4522tt1KQpwdSxOewChMvaULgistKMCUiRArYdQH+aGXylLeH+muzy31FRdiUbxFiWFplPSxOvJ6nOCGtwkpKxevTNWnJ0yIjO9VSkSShWPv8RgMW/sswmoo+eiOwcgMXr51xYekjFj5WnAx/J1Z7ocVsT0oLrTlabUzjUDQeTLmg+DgLuitZCo3J6E1dzs3xwlakFdE6ZkPY1gkLbb++3SdEWEaDhgsrLU7e5/pTQU6msIQOICPhkLCK7Eu29AqNgkfr7gjs3Bd+EZpbkDJSZmtpRohVUlEJdolZy9oCC0JNJpzh642bQwJwqpcJ68W2jmYv+Hic7DL0Y7WTSmInEfezE7VQ3j56wWZbJOiWmlX0mxpWkGcYMpttWt10bB64ZcsW3Hvvvc3WTUTxsVYhd/SFeWz21M/7r8HBjPU7mftkZD2UOW1M6GVFDEXjQKuNJdsc5ZKsCbop2cCVAURNhdMstoO2LLYSTRi8g8PR9uIbZRAGyRNWWVr8PmSdOCbde/XBS7yWd0stZ6KwugDpMP2gTFhtZ/macYGvD/YXFiG1pAiZ4rMmCSutq9kb+aXFSBbWnThL9b/SYN1LDxsFmL2y0+Xa3Rk1VPzPFKKWoa+tNbXFRsFi+xDmqDCUnh2mrXAWze7P//d//ycLyrpCaLvC9WGAiJFms5VhcBCTlxWNB70PzE/btm2bvsU58Lhgix7mLDYFDhe2Aj2IIr20FEeFdVSZrsIaIkVZaSgprAi2yM/OQCnFpIF4enkjyNtLWos1OQbLPD0QYfLAiGA/mfw9MjUbd6VlIVOI4VZLIdblW3C0UHyWSuJ4tLgMFiFQXgEVQmClODdDWGs1rylst2jfq0Tsj6ImroDNWoOMYqprDWTAgAF2VbV3JpwE0JI0grX9v6LxYf1NIwWgCY9Ddt/mMaloPChuLGXGnoPOzImkuN13331NsubmcGErKS0pt0x2CIuoMt18vOGvG0LZR/ZqNwTePsbWUmqjKCAMfwlx9dQroNiiQIjM9KJSuY7TT/zA737wPr5d8A3iLrkUL2bk4MHUTAw5noabk9JxR0oWJmVkw+QfLIWzMiUFecgXFurZtfRn26bvA7r6mhJGMLG0UV1FUIl1gb+pOkkToxU2CKswKNdW48LJB8t8cb3sueeeM1Q1gzB5+6mnnlIegkaG4fojRozApZdeKgs7G81xsxfWWeW409g4XNhIvkUbkGgBVaevvhaVebiikafZt/4dZavjGRKFn/PyhcVmW9gShOg+lpqFVSnpuO/+ezFmzMNoL06qVmJAHDt2DKZNfx3dunbB6ZFROHvo7QjpewHyhaiV5GWhJL9qCa3i7HR5Xdv62harsBkcpB0Ni/gaSXZ2Rn1EI5XLeeLV1LerJjhIsuWLovFgpQy2YmHI90cffSRLKhmpZUl69uwpRVHR+DDQg9Ybk67p0WHbJ0dacSaTqUk6TDhF2PJ062STpQj51SIaz/fT1qks6UmwZGnC4KXXgnQEXsER0kpKtOHa/C23AGOFBebj5y/LXH36yWdye4vYWCxetBg7d/+DCwYMQPs2bRDXuQfi/jcA/YePwo3PvYWw9l2Qd6RqHUKPzGT0NgsrtIZIsL3icySXaN/fuk+aAlox9ckxqc36YYJz9QTcumD1A3thzUcjQkgobPZWO1c4B7qwN27cqN+zD3oIGE3XVOsxCq3c2eTJk+U4wfOe3hoWNWZtT6NLAtXh6zV2X0CnCFtuXp6ctdFW2VDNauvra0aoXhQ4S7favMxmeDio8j3TBoIDQvC7Xn0/vbgEP+Xk4/4T6Xg3KxeDzj0f5zz/Pgb2PUcuoC5YsFA+j/AECw0LR3FOLkz+VVvj+IeGwRwWq9/TKMjJwFk+NVejWJWvfXdaa8UOWEOsL8wxcvR6GS069luyFx4PPHnshS4to00dGXbOxo2KpoO/MUswcUA0AidJY8aMUVVJnACjVq3Rzwweqwt6S1jPk25Kjh2sOMJC1lxDrY/IMR+VkZKNiVOEjeTo+V1/5J1s1g7Qrbas+H/lNWF9SCNobkDb7sbi6NaYK8SMSeC3J2fgw+w85Ijf48Zb70X4cK2detQtD6BjYBC+ED900vEkjLrjDlx+hVZoOScnC97BFcnBGUlJSNqzCz5RFQnkhRkpMtftLL+aB/c1+ZrfOtvguoOrwMaKNWE0z4ypBUaLo7I2ndEyQBwYXSFB9L8Mo2o/+OAD2WvOCKoqiXPg+r7VPczGpEZb0jDYhJMOWl6s2GM0SIgGA12SjYnThM06mLOOYoKe22bFKmwlBbko1NepvA0IGyMoc/b9LaworWp4dcyhUTBFtcZxDxNMfoHw8zTh8tHj4dO3qq+3zzU3ITs7B98tWIBCi0UW+mSty9wcMZhGV9SNXP3lR/CJrRrSXJiWKLuER9bwg63ML0CaED6+nlXkmxMUlNqaHnKxv6aySbbYuXMnVqxYod+zD7Z04W9ihA4dOji0XBar0R84cECuAakB135oJTAowQgcAK+88ko8/PDD+haFI6BL3xrQx6r9DUmeZlPY/v37y4Ahe603rpXX1UTX0ThN2CyFheUBE9/kVl1fauPthQ5emiDkp2jVHLwMCFuZnivnHxwBs95Cpjp+cR0R0PUseIpZ40Xnng9zl5PXXnzP6o/ukZH4+ptvkZaaipuHD8ffW7ZI68IUoyWOH9y6CTnpqfAOCpP3SWlJEYozU3Chr+0IQ/7g87K175yVnV0v892R8KAyGq1GUfniiy/0e1XhAN+3b1/9Xt1wMZoNNY1+BrbMWCAmHUaCETgzZBSWvR2va4OzW7rVmKfFyL0ff/zRperhuTL8rZmga8T9TOjeprCpqiTOgZMHnhsNiVTkb8rzwV7LjdHNjdHdvDJOEzaSkaVFtS3PL0RqtcHpPN2Fl5eqC5udTfCIXI8TVhjX08y+NbvDCo4fEjOVAoRedJW+5WR6XHQlksXAv3TJEqwUg3mfM86Qprs5NEJYW2VY//Wn8NMTv60UpWmzj/665VmdPwsYvKIFjWRk29fk1JnQpbhv3z79Xt2wEjgHpZqEiFFORtqPsKIJc2bqA9cE9uzZo9+zD/rzaWE1ZL2Gs1rWvaMFSFgqigEz6emah0FRN3Rhvfvuu4bTNliV5Mknn1QWspNg416e3w05P/jb2tvUl8/jJLUxcaqwMRKQlhuZq1swVvr5aqJQkJIgr7287bfYPL197LLwrEWLF78wAWnzZ8LDxszf538Xo31YuGxpniEGLZ6EAXqu16rPP4JnQCg8faq+F1vYdPKp2Q05O0tzPdJaMxr67CxYI86eMF6W2xk1apQ8cGvinnvusXsxmG4QhoPXtl5XG2yRwRp3RtfaGB3JyuNGk3+5WE53C9+z8ndMSUnB1KlTDVsg/3VmzJghQ8qN0q9fP1lyS+EcuJ7JKMiG5A/m5ta9xFLXkoazcKqwkbQMbYa7It+CA5XW2qK9TGgtrLSi3CwUF+QKK8xDWGD2R9mxhFZdsAsAE6vZyHTxmpX46fG7kfH93CpVRUivPudg69ZtMrjh0N69CA4IRNLBfTi2cwv8Yqv+8EzKZk7bJTaSslk8eXZmjrTWWLg5LTNDf6TpoRutrhpxjBJluZ3aRI0tSRgtZQ8MHpgzZ06Dayyy7hxzpIwGI7DtDS0+hp+zmjxFqyboYnzvvfdkJCattcoRnzw5X3rpJWnB1UXlMmV1wf5u1u7SzoJWT12NIRsCLdnakv5p9bOHV32qknCCxTVOezHaL4/rTUZh9KaRQAhan86En6eu3oK2uq7TJTl48GC88cYbtZ4XtdGyZUUcQk1s374dP/+sdV1pTJwubLTarGttMzOrKnxPkxbVmFdutdkvbB52hJqbfAMQ1PkM+J/SSzzfD8lc61n+C36aeCdS5ryL0nSt43LIlcMQERCAuZ/Nwerly+DXuiNWznobvq2quiCJRXednqsL24b8Qtn9+86kNIw8kY7v8yzioNHcpYHVUgaaElo+7JlUk+VDUWclgtpEjQM+fev25K9RhChokyZN0rc0DL4OrWprI1t74QDJ9UBG6bH6P8PQKXS0YHlhQiqTjDdv3oz777//JEuU+4szW1qddcGoMSPuHQ6QLB5sxOVmNBqVM3I2VrWXyy67zFCSOz97XVF2tNhmz55teGLCggJc4+RaZ10YXfclXMczIpyEbngjAmo0SpdiYaQJLvfRkCFD9Hu24fqWLc+Rdb2Nng2jkcQsu1dbniuhl+P111+vt7emIXDqMUW76TwsRYUIETPZZDEo8Q2767lfmaVlMs/NOzAEAdGtUWTJR7HuPqyLkux0hLTpLP+msFpFkOqYfP3gGx0HD29faW3lic+zN+Eotq38BaYtaxAoDDi6FVdu3CAGvhSkpKYgt9RD/E3VH65MHBz5h3ehu7cJBWWleC0tG0sLLDhcLLaL1+ABeZOweHgQcZbkLwYg5q85sx6bETiQc3bGAaB6exFaKFu3bpUzrOrwoKcw0FqzZxDm96Urb+zYsYYDRmqCr8mZHz8/K1XUJ3yY35mizMEjLi5OXmJiYmR0J0/y6lAEWaSXhaHrghYfk5M58Nl6rZrg4MAKL4y8rMvNyQF+ypQpiI2tmk9ZGxR2fiYKIiNMa0uSZ9eHF1980ZB7ivuUxbM7deoky6DV9Ppc4+Xn4D43Ai3aq6++Wn5nvj4Hy+pw3/M3MtphgMcCq27ws3PwrW3fcJ9wckMRMXLssX4pRSA1NVVGBtcGzzPufyMWtnX/U0ATEhJsHkMsa8WSerYmRNxf/G5sOcToRa6H1wXHAHow2Ay4pv1tDR5iPlxTwE/VKCF7EWFhCA0OkW84NTwYPYS4xRcV4+GUTAS27ICW516GvMw05KTWfHAVpifDHKbNqPMO7US7gUNlZ4Cc1CS5zR7KSktQKCzEQvF3LGDsobslWaHf2vXbZPKSEZXCPJCuR3H0yPW6oowT5WW0KtNLHFg333oLrrv+en0LsOj7HzB2zBhpYRw6eqTJIyOt8KDkCXrbbbedlGDNGTUXeWnRcJbHk5KDBgdFe5Ox6XKidcWmk86CrXUYHOKspE/+VrTgHnzwQWzYsEHfejI8aSk2dDcFCIvfyKBaHb4no3E5+eCEwLrY/sADD0hLkoLA3676hMQIPBYZ/LJ27VpMnDhRbmMZJVbZp4DwOzQEfgdav+zWzNevHjDASDwKEIMX6gM/Pwdfeh/4PoxWdcR+IXxtTmSWLFkizw3CwZui6qj34JoUxY2/L38DwjVgVsFnkBL3iz21XGvCegzRnc79b30PWuxcEmAt1drgPuC+ZcDPwoULbYbo0zrnucc10Jr2B/cj2+M0laiRRhM20iomFr4+PggS7zo9MhRRXiYMSUyFOTgC7QYNlz3Y2GC0JrL3boGHyRu+LVoj7+BOdLz6rpOEjfUcS4sKhBCJS3GhTA0oE1aTvAhRK78tLuDFBh5C2KQQiefXBGd7115/HW4WFtqpNUQIPnDvfVjyyy9IFrO1rJzGDXetC5bM4ezf6Ay6JjhD48nD12yMnBXObmlNDR8+3C7XqL1QmN98800Z9FCXtckJgFH3V10cPHgQQ4cOlcJKmA/GpGVHYn0Pwq7K9W07UxPVv0NlPvvsM7mO25BJAMWZlhstLUdDlzwtEcJUE1oyjoSfnR0NuOZNmPhMd6uRnNC6qP4e1YWNAXLc/+ylVxP0kNDrRPc9obVHy47iW9Nvx79ZvHixdN1TIJuShk1BDJKUfEK66bKFZryQng2LEI9QISKFOVqQRfXq+dXxiWiF4sxk5Oz5S4iXBQkbliJl6x/I/nczMravQcaWFcj+50/k7t+G/KN7YDl+SFhnx1CUnoTirFSUiPcpzc9BGXu+1SBqRIpeLaJ2ep/Tsfz33/Hs1KlS1Das34DZH8+S15Wr+A+/aYS8DnDgwOsoGPnH+m0cODmYSyE3CGd4dG+99tpr0j1Iy6KxEjF54lCcu3fvLt/fmlxfH6yWKltsdO3aVboUHeVCVVSFFhtdiorGg+dk5YLiTK7u06dP+bqzrfOGHhrrmjEvvXr1kqWxbIkaX5uTAHovWPOzqUWNNKrFRnzMPsJyi5E7qL+vGSmlZdhdWIT2l98my2qlHD45Z4lWV+7h3VKcbBETHY22bdtId0pYRAQioqLlj9LulPZo17Ytwqv16eKMhqH96RkZSE9Lw5HD8UhIOIZZQpx8w2MQ2qEHTL6BSN25DgVpSXh6yjMYOWoUfvj+e4wb8wheefVlYa3dIINi7rtntJypPPPss+jarav+DhX06t5DuiAOHqn/wNsYMGiA6wecrXJmRiuo8iySn52DPQ9iujroMuNsv7HzU2qDaxO0FNjxmusKdKXye1R3o/L3oMuG+XpMRP/yyy9d6nsoFI6EE1irZc5gKLpCP/zwQ/1R7byhKPHC/FQGD9Gaq+5+5eSX5w4n71wzpceC695NEc5fF40ubITRgi309ZGWJk8klJQirv8Q+EW1RPLBqkl/NCT8AkPEtLpQmy3wUlYqRGc9xtw6Arc+cH+DXVGpwpKk0A2/cQR8Op6J4DaaiyN521qk792C226/HZOfeVpuO+uMvrj6qqsw/rGJ8gflLGbAwIHyMVvcdfsdWLliBZJShKVpR96HQqFQKBpGo7oirbB2Ymq61pKE3a5JYW6mFC4Pz6oRR9Sx/BxhRgtLzyQEzhwSKQWQlpXJo8wh6ytWN1ykmOGXlWmfh9s89T5x8ZVcJ7RomA9WWGjBkGuvlbOXiwcMxCUXXYzJT03CL2IGU7lpX8eOWuUK/1oqpCgUCoXCcTSJsJGMrCwhbhURhqWF2tqUp7DgqkNxK8jOQE5KIjKPH0baESEsRRYcS9ByyhqKdXmJ1leBENGsEwlIjd8LS4H2mY5UKsR7Wu9eMjSY7kfCjgC/rViOX5f9hqkvPI/LBg+usijbpbMWulvbQq1CoVAoHEeTCRthLcls3T1XUmTN9aJ3tG48vXxx1EHCJqRN/h8QGCgrobDPGjsIeOoJ45XrLHLthtFCRbqwEYa3MnBk699/l1fRJsXidqdTtSRvT6qzQqFQKJxOkwobydVbupToQmHv8O9pNuNYkmMj8Hx9feBdKfnS06fCfWiN9otu0UK6H7kmRxITE7F/334haIXYt3efrF7y119/ycdyc3NkAIbZ21v2blMoFAqF82lyYSvRq+BbXZH2Dv8e3j5ISrUdJVlfKEI+3tXW+PSoIOs6W6CexJp0/ASOHYmHR1mpsOI6olu3rhgw8EJcM+RqtG/XDnlCsDMzMmT0XaGw3ArLLVKFQqFQOJMmF7YyIQzE6oostVHTzBYmYU1lZmXWWPvQGJqdaDb7iB1SLSTfpOXW/bN7Nw4fPIBMPeiFVesLhOWWm5ODdCGwlS9pKclIPHpUuivX6Nn/1nqZCoVCoXAuLiBs2jUTrstKy2R1EHsJ8A/Avr179Xv1x7r85e/vB69qwuahl7jh+3DNLEW3Eplh/9GHH+G556ZiwviJ5ZdJkybj4IGD8jknkpMx55PP5G17WjwoFAqFouHQ7+b0Isi1wQTA0OBgTdg8PVCmW0j24JGXgW5dOqNb9+76lvpBq88iLKrDh+Ox6589KPIN0R8BijJTZJ1ICtOiRYsw57M5cjurJ+zatRtH4o+gpLgYAy8aiIsuHiiLjUZGRcpiwlOenoLklBRkZmch1yGWpUKhUCjqgrZKk0c1dGhbUU3cw8sMn9h28I2su1dS/pF/cNM1g/HU5Mn6lvqRmpKMjLQ0rFq1GrM++xz5ERW181jxpChNK8xs8jIhMSkJFkuhrNrPahxtWsXBW1h1PmYzWsTESKFOFa+VnaV1zmbO3gkhbvUpWaVQKBQK47iEsAX4+SMqMhKmSuVbGBzi26ItfKJqFrj844fQIy4S875uWCNLuS6WmoKtW7bi2eefR5E5CCXCSmNAi6wrKSgSVln8sZObJbKFhZ+vrxQ3bXdqsP5gXn4eSly4jJZCoVC4I02+xkZyhQBQNJjXZqWsyCILGWfuWIuC5KM2195MZj/sd8Qam6cmSEEhQcjNzkZhagJKctLLRc1SWCgLONuCRZ1ZKis9M1NcMsov2bk5StQUCoWiCXAJYSN067ESCXuXVW7xQoErOLoXmdv+QM6B7bCkJMr1OMI8M/ZlStMDOuqLtdBnkN4natQdt+P5F6bCP1AL7acrkeKmUCgUCtfHZYTNCi0g9i+LP3ZMBl2UV8QvK0VxZopcV8sSVlzG1tXIO6wVTN68WUuIri+een1Ka47aiOE3ypqQLaJbyPtWi06hUCgUro/LCZuVouIipKSlSQvuRGoKCioVFpaUFqPUokUabt64UV7XF2ur9+qt03v06CGvvU3172qrUCgUisbFZYXNCqMJs3NycOx4orTijiefkBYdRY8Xwt5gDcEqbFas1fnPP7+/vK7ez0uhUCgUrovLC1tlaMUxH4xrcHRT8kJ27thRpVWMUUx6Ejah1WatC3naaT1ljUeG8isUCoWiedCshM0Weflajcm/t/wtr+tDZYvNx9cXKSkVwSgmkyd8VcsZhUKhaDa4gbBp62x/rF4lr+uLl7dW8cRfWGysQWnFW2xn1GR1d6VCoVAoXJNmL2zWUlXLly2T1/WFAkb8/P2Qnqa1pPlh0WJZZYR4VEq+VigUCoXr4hKVRxpKXGwsfMw+WLfxT0RFRelbjZFyIkm2mZkwYSK2bd2mb9VgAnZSSrJ+T6FQKBSuTLO32EhunrbO9vuKlfK6Pvj5+8vr2JgYec38Oa7fJQrBU6KmUCgUzQe3EDbrOtvKFSvktVEoYvm6S7NVXJy8Zu4cRc0anKJQKBSK5oFbCBvLXbHo8B+rV+PrefOx1876kYWsAZmYiIP79ko3JPHUm7N5erjFrlEoFIr/HG6xxkbCQ8MQFlLRRy04OBi9evfGab16IbZlLFq2bIWoqAiEh0fA09MDe//9V/ZUSxTCduzoMeze/Q/27Nmj/zVkEnjlmpUKhUKhaB64jbB5e3mjZUwMvBwQlp9fUICEJK0Hm0KhUCiaF24jbFbYF83Xxxc+Pmb4eJtlGH/1HDQWWmZLmdJS/bqkVL9fKqubMApSoVAoFM0TtxM2hUKhUPy3URESCoVCoXArlLApFAqFwq1QwqZQKBQKt0IJm0KhUCjcCiVsCoVCoXArlLApFAqFwq1QwqZQKBQKt0IJm0KhUCjcCiVsCoVCoXArlLApFAqFwq1QwqZQKBQKt0IJm0KhUCjcCiVsCoVCoXArlLApFAqFwq1QwqZQKBQKt0IJm0KhUCjcCOD/AThL6fpNInlkAAAAAElFTkSuQmCC;" vertex="1" parent="1">
          <mxGeometry x="179.41999999999996" y="191.99999999999997" width="119.56" height="35.48" as="geometry" />
        </mxCell>
        <mxCell id="0LWopOkagk5XhUzyKvVM-12" value="" style="shape=image;verticalLabelPosition=bottom;labelBackgroundColor=default;verticalAlign=top;aspect=fixed;imageAspect=0;image=data:image/png,iVBORw0KGgoAAAANSUhEUgAAAbYAAACCCAYAAAAqle1/AAAAAXNSR0IArs4c6QAAAARnQU1BAACxjwv8YQUAAAAJcEhZcwAADsMAAA7DAcdvqGQAAD0VSURBVHhe7Z0HfFPV+8afNm2696CFsgRkCyKuH6KCouLEAYIDceJGEHCBorgV3H9FEVRwgAoqOBAZgiwBka1sCrSU7t10/s9z7k0XaZvbJm0az5dPSHKTZtzce57zvucdHgDKxEWhUCgUCrfAU79WKBQKhcItUMKmUCgUCrdCCZtCoVAo3AolbAqFQqFwK5SwKRQKhcKtUMKmUCgUCrdCCZtCoVAo3AolbAqFQqFwK5SwKRQKhcKtUMKmUCgUCrdCCZtCoVAo3AolbAqFQqFwK9yuCLKXlxf8/fzg5+MLs7e3vO/pWaHfZrM3vL1M4pt7IDc3Dynp6SgsLEKBpQBlZaoetEKhUDR33EbYAvz9ERIUBD9fP32LcXJyc5GTl4vcvDx9i0KhUCiaG81a2EwmkxCzYAQFBsJL3K5OTHQELr7gHLRpHYuoiDAEBvghOTUdqWmZOJ6Ugl17DmDvgXjk5FQVsrz8fJxITUFJSYm+RaFQKBTNhWYpbGazGWHBIUKoAvQtVel3Tm/cd/sw9O7RWd9SO5u27MTCn1bg1+VrkV9gkdtKSktxIiVFiJyy3hQKhaI50ayEzeTpicjwCClotNb69euHa4Zcg8SEBLz++jT07NYJEx4ciT69uul/UQPiG5eVlcqLh7jITR4eyM4pwMy5CzH7i+/lNpKano6MrEz9nkKhUChcnWYjbMGBQYiOjISPjw+uvOoqDBt2A7y9vfHG9DexedNGPHDXcIy88Ur92RWUlhShjJfSEpSWFnODuK2JmS08PE04npqFx57/ANt37ZPbKGwUOIVCoVC4Pi4vbN5e3mjfti1Kiotx6aWXYPTo0fA2e2PVqj8wd84c+JpNeOvFCTilXZz+F+ILCfEqKSpAaWG+tMrqy9Ovf4Yfl62Tt9MyMpCemSFvKxQKhcJ1cWlhY9h+yxYxCAkJwYSJ49G3b1/s27cfy5evxNJfl+CCc3vjpafH6M/WKCnMQ3FBrrjlmK81/cOv8fnC5fJ2cloqsrKz5W2FQqFQuCYuK2yMdIyOiETXbt0w5ZnJCAwKwurVa7Bt+w7s27MHXTvG4oWnHtKfrVlpRflZ0u3oaJ5+7RP8uHyDvH38xAnkqoAShUKhcFlcUtiYWN26ZSuc2rkz3nnnLRTkF+CbBQuRmpqG9LQ0ZKUlYd7Hr+jPBkqLC1Gcn+mUBGsPTy8Ulnnipnsm40B8AkpLS3Ek4RiKVSqAQqFQuCQuKWwxUdHS/ThnzqcICwvDzI9nI+FYAsxmH2zauB5Lv3kfQUFaqH+ZELXC/IyTvoUHq4WZPIUFV6xvMY6nty+8/YLl7cTjJzBk5Djk5uZLi42Wm0KhUChcD5cTNob0t2vdBt27d0eXrp2xYvlKpAkrzcq1gy/E1EmaC1K6H3PTqlhqHh6e8PINEKKkVSBhVGRxXka9rDlzYCRmzv0OS5avwT97DyE40B9ZejL3seOJKLBoOW8KhUKhcB1cSthY1zEmMkqG9FuJio7C+f3PR8eOHfDVV/PQu1t7vEBhE0JVmJsuxK3CIvM0ecHLPxTJqRl4afrH2LLjXyFEubhj+JW4e/gg/Vl2IgRy14ETuPX+yfqGqmTlZIv3SdXvKRQKhcJVcBlh8xKi1Lply/KCxS3F7QcfegC9evXC4cPxSEhIxI+LFyHlRCJ+nv9/KM7PkiH9FXgICysc23bvx72PPo/s7FxEhocirmUU0jKyMefNCQgM8Nefax+bt+1HZnYWzj69KxKSUvD7+m34YuFysS1XrrUdOnrEKet6CoVCoag/LiNsLaKiEOivrZtdOOACPPHEE9ixcxfWrFmHggJNwI4eOYz9e/di/ZJPUJhT4Z4kJrMvjiRlY9gdExAeGoiXn7gL3U5tpz/qOA7EJ+LO8dOQJcQtMSkJeQX5+iMKhUKhcAVcoh8bk7CtonbBhRdi3KOPYuF3P2DZshXloibx8BDP80NJ4cli4mky48U3PhZWWgjmvv2EU0SNnNImFq9Nukfe9q3kMlUoFAqFa+ASwubn5yuv/f39MWbMQ/hOiFp8/BG5rTKWgkJERoahpOhkYWPV/nUbt2La06MRrEdMOou+p52Krp3aiM+rfW6FQqFQuA6uIWw+mkCc178fDh46jOPHk+T96uTn5qJLhzY2nadlRQW47KJz0KFtS32Lcxn4v9Mb1PtNoVAoFM7BJdbYWsXESrfeI2PHIDklDenptmsyblqzBveOugrXXHKOvqUqDPWvrTbk8RNpCA0JFO9l1rcYY8uOfejZpT28vEz4bfVmPPbiTBw8Ei8DSRSK5kiXLl3QoUMHeZtRySxbFxys5W5GRESUP8agrtatW8PPT5vMsQB5QEAA9u7dixEjRmDz5s1ye1MTHR2NRx99FMOGDZMBaGxxVVxcjGPHjmHevHmYNm0aTqgcVLfHJYStbVxr2Sj08SefwLZtO/StJ7Py1yWYOW08OndsrW+xHyZb/7v/KLZs3YlhV12gb61KWnqWbEZqNnvrWyrg3/++fgcyUpNx1SXnYteeQ7h1zCs4kpiAwsJC/VkKRfPgiiuuwJw5c2QBhIaQnp6OW2+9FT/++KO+pekYPHgw3nnnnXIxtkV8fDwefvhhfP99RWsqhfvR5K7IyPBwmZRNCvJqr8GYJwSkPqLm7R8iK4h07doZy9du0beezOFjJzB3wTL9XgUeJm/59927dMTsr5dIC826jmerc7dCoWhcbrjhBsyePbtWUSNt2rTBzJkz5fMV7kuTClt0ZBRCgjS3B7EU1lzJw1JgQUA9XIgeHiZ4emnRi2xO2rZNHFas3SrvV6ddXDS+/WkVSqrVgTTpfx8bGy0tuh9/24AgPScuqIYu3gqFK0NLa+vWrUhJSZGuuuYMXaRjx45FixYt9C21ExkZifHjx8u/U7gnTSZsMdHR5aLQyVtz/RUXaYKSm5MjT7jKof5l4l+Al3HrqKysBCXF2utw/W3kDZfhmdc/ka7E6oSFBks35PdL1upbNEqKLbJzQGF2Ks47szve/eQ7+PpqIhvgH4DIsHB5W6FoLqxduxYDBgxAVFQUWrVqhXvvvRf//POP/mjzYtCgQbKQgxF69uwpXZcK96RJhI2dsAP8NIvnpYhQ9PXVLKI1a9Zg2dJf8fvKFfhz/Tos/20pdm7fLi0oX19fZFrq15Jm985dyE45JoQpBa2iAjGwX288+twMm0Efw68ZgLdnL0R6Rpa+BXj1nbkYPGIc+lx2D2bM/REZ2bk4kZwOsy60IcHBCAsJkbfdiTFjxiA/n81axbTCyZcFCxbo76pobBhMMWPGDDnQb9y4Ud/afGAADANZjMDUoq5du+r3FO5GowsbrZuggEB5+6nwEAwK8EeSXoF/165dsFgsaBMXg97dT5XbDh8+hLVr/pDiFiwOxoQkY/UZc3LzMPz+F/C/IWMw5M5ncM/E6bK3Wk5ufnn5rspcPehceIh/k1//VN8CnCusNEZCkn7i9hfvPonWraLh4+2Fnj5ecnt4aBiCA7XvpVA0Rw4dOiTXn/LqWOt2NTp27KjfMkbbtm31Wwp3o1GFjR2xad2Q24ICcW1gAFYKgVmRr62t9Tu7N1YtnoWf5r2HuR++hN8WfIA2rWKQnZWFo0eOICgiEpu3GHOXsD7k/bddjQB/XxxJOIHN2/eic4fWeHb8bfozquInrMepE2/Hus278OnXS+S2887sge9nTcXmn9/H2889WJ4rV1xahv7i+X19NFdqZHiE7CXnLtAVzImGs2FUaU5Ojn5P0ZRs2LABiYmJ+r3mwb59+/Rbxjh8+LB+S+FuNJqwMXCDwSKEYvBQmCZwK/O19a+up7bDjOmT2UINX32zCF/MXyTXvF6bOk4+npKSDJOwkDb/WXM6QE3cOXwwfv9muhQmXlhya2C/0/VHT4ZCNvzqAXh71nfY9Pe/+taTybcUwldYfRPCgtBafHAPD4/y7+gO0D0VGhoqXTajR4+WIdKpDexoQLdjQkICPv/8c/mafG12cxg5cqT+DEVTwoASBpY0J7g2mJubq9+zD1qlu3fv1u8p3I1GE7ZoYW0xrD9CXJ6JCJXbOMjt0nPAHn3gNjFzL8LEKdPx5oyv8OJbn+Duh59Bu5hQdOvUDknHj2Pvnj1IyGqcmf0jd10nk7EfnfoBdv57cqAJc95IoBAzH3EZL8SN+JjN0i3pTnDg+PDDDzFkyBC0a9cOU6ZMQUaG7ST62mD03XvvvYfOnTvjlltuka/ZXAMWFK7D0qVLpSAbYfv27fj555/1ewp3o1GEjQWO6YYkz0WGIVTP/UotKUZmaal0/53T9zTk5uXi9ae0AsNMok5KScd3P63AWad3ltu6dGiNEdddLG87G29hHb466R5ZpWT042/gn/3x+iMa2bnaOkS4vk7XVjz/tiDtO4YGB8vCzu4IXYbPPvssXnvtNcOJ6UePHsVnn32m3I4Kh3LkyBG88cYbSEqyXYqvOoy4fv311+XfKdwTpwsb3XMR4Vo4/JAAP5ytR0Bmitl7QVkpzOLxUD3ZOTjAV/ZOaxEVjsfuH47H7rsRq9ZvxUO3D5EuxM/ffRID/mcsrLchRAvL8v2XH5HBJKMfexNbdx/QHxGfP1sTtjATi7do8Pt18DbJ7xwVEaFvdU/++usvwwLFAaU5Rt0pXJ9vvvkGt99+O/bv369vsQ0rj9x1113y+Qr3xenCFh4aKqtzhIjB/uFQLSTeUlqCbL3zdZCweBKTtd5q7IbN6ENaZqTfWT3Qs+sp8rYzMfn4wxwgxLdCo8phm5pbb7hYRlH+uaXCJ38wXltgt1qfhIJ2f4gWGenn61veiscdSU5ORmZmpn5PoWh66Fr83//+h1dffVVGeFo9CnSBM1CE288880xVTus/gFOFjeH0ocGamI0NC0awiUWKy5DG8H4hAqSdHka/+e9dQEmJ7KcWoQeWkLtvukK/5TxMZj/xeTyFrtneHUGBWs5d724V5Xp27D6IU4R1Vp0O3l64Qm9nEyZEXaFQNB7MyXvsscfQvn17GZTEySYLNnNtmNtVAeT/Bk4VNq41kTghXpfrJagyhLVWuWBVT73g8JffVizkDq2hSLEz2LnnMEoKi1CUkyZE9+SE7e3/HMQPv66TpbT69Oykb2VAxQHEVbLWKjMs0A/MbmPovzURXaFQKBSNg9OEjTMlax3IO4OD4CnuFwnhyNWTsa309/dBoDDeflm+FkeOa6HkLVs03vrUd0vWYtu2bShDhajRqlyx5m/c8tBLGDX2VSFOvvjqvadkyoKVXYcT0dZLS86uToiwTAeJ70VC3bAiiUKhULgyThO2wIAA6YpsIQb5q3RXXkYlF2RlrhbWEHng8Wk4nnJyDg3LW1kKqwqio2D1kEmvzcYn85fI4sgsmTXkzqcx/vkZMv3glSfvwkevjUOsEFuLuH/46HH8tWOv/NsuZtsWG7lW/07sM+dOSdsKhULh6jhN2KwFjq/010StoLQEFmEJ2eKqAF8hgB6IP3YcI8e8IqyoNcjIysHx5DS8/9kiXDziMaTnO6dt3A1XnI/oqFDMnvcLZs37GemZWbjzxsH4ZsYzmD/jaVzc/wwpaHO+XYqbH3oR4aHB+HnZBvm3nWz0bbMS7WXCaWbNoqPIKxQKhaJxoPnkcMVgIjabh9Id+V3LaMR5eSG5qBCWWt4qvqgYT6ZmIsfGU+4eeR3GjL4Zlqxkcc/Yx/U0eaFMfI6y4iJZZ3Lqm3NlZZEzenXCqe3jbNaLJHn5FsQnJGH1hu2Y98NKIXg5eG7CKFx8Xh8MGjYecUKoX4msPTjkt9wCvJuVq0VlHTuqb3UPzjjjDHz99ddykd5eNm3aJKPSFK4NUzLYSdseXKnRqEJhxSnCFhIUJOsmnurtjS9io1BYVoITdvR8OlpUgllCCP4SFpKVtnEx+HHee/J2YU4qyoSg2I8HfIKjUKq3nYGwGGkNvvTul0JsSmD29kK0EKfoiLAqHtJnxo3EHeNeQ4peXYQ8OGoIbr/xUvyyYiOeenUWhgf6YXhQ7YEhOaWluCVJc626W6dtVxQ2VnkfMWIEzj//fFndJEgch6z6zgmWFU4yWH4pKysLe/bskR0lvvzyy3pXQOF+iImJkbfDw8PRu3dveOlrr506dSrvUB0cHIyWLbUao5xMBQYGIjs7W3ZQ+PTTioLbleH3oWiwvQwL/YaEhMBs1tolcR2Y34NJyatWrZKJ7ytXrpSPNZTmIGzcfzyWWKWfsPVO9+7d5W2uhVeu+M/WPBF6Xql137MO6uOPPy47btcGX8favNTPzw9nnXWWjLYkcXFx5b8pH2N/N74+jze+N7uHTJ06Fc8//7x8TnUYqcmGp+xmzuOVxwq7mFjh75uWlibrd/IYdWYHDO6Tyy+/XH4WtgDid+E26/FGrMccO36wPiePE6ZY/PLLL/ozgCeeeEIWcGAkalNOZJ0ibDFR0QgQB9xdwYG4NzQYGSVFcpC3l7SSUiwW1s6C3Hyc0jYWP3zxrtxelJcpRcoI5qBIFOVmYO43S9C6VRTOP/s0HD+Rhtnzf8GPyzYgv+BksfngpTF44uWPpZUWEhSAMXdei2su7ScfGzXmJWzfE49pkSEytL8uJgsrdHthMVLT05AhBlN3wVWELTo6Wibm8kIhqckCrw0OQHv37pUdmHmxJyScgvTyyy9XGYiMYh1c33rrLX2LBkuXcYDo06dPuUjWBb8DRXrChAlyIGwIjhQ2DpRz5swpF/j6cvDgQQwdOhSbN2+WA/y1116rP1J/WD1n4sSJ+r2qOOpz23qPs88+W4pd//79y0WyLigqO3fuxOTJk/Hdd9/pWxsOPws/3yWXXCKFrD6w7iaPGU7Q7rzzTvTrp42VTSlsTlljY3IyOZM/GlXegKiRcJMnrgnQfvADhxORpxdK9jSdvKbFwJKcvHz93smUCSFk4nfPru3xybwlSE7LREx0OJ548CYs/fJVvD5pNO4beRXuufmK8gsDRcbceT1mT5+AJZ+/XC5qG//+R4paNyFo9ogasaYzNGQAVJwMT8JnnnkGO3bskALDGW91UaN1xkoU69evly2ReN8W/Dv+PV+HAydPzqaAIs2Z+bx586RlYK+oEX4HDpScPT/wwAP6VoUrwWP2lVdewfLly3HxxRfbLWqEVmCPHj3k8cHXaCg81liI/Pfff8d1111Xo6hx8mU9h3hhGbLqnidazRdccAFmzZpVLmqEx2R9xbKhOFzYWASYX4jDeS9fMwqEsNXHJAwxmRAlBI5s+nunvPawUX+RHQBef3++fu9kivKz5fVpXU/Bg3cMwahHXsGmbXvkDJc1Kgf06427RlyO0bdcWX6Ji43CVYPOkX/DmpFWGMhChgZqEY/2cJre0sbPRwmbo6CrkdYJhY1uJltQ8C666CLpwjv33HOlm4r3ub026F764IMP8NVXX8mTvybY2qU+VeVr4vTTT8fixYtx4403VnH/GIXdGCjQ999/v76laeFMfvz48XIQrW1yYQtaKaxwQwuNlu2//2qdNmhdHz9+3NBrGYWWKD8vq+vwczQUuh2/+OILuS+s7tP6wAnyI488Iquo1BeeP8uWLcNNN91Uo7iyyDndqOxZZz2HeGnTpo2cBE6fPr3OTh+0dvncpsAJwqbtqB4+ZniJWUa+oTWxqpwnXoP8sW6LvGYgSOX1EivBwQFYtHS9fq9m+vTohIHnnY7Rj72BS295Am/NXIAPP1+Mpas2Y9PWPVi7aRe++n4FZsxdLK2zyvAx1orsafbC6UKw7aWLbrFJsXfTwsiNCa0RlkQ67bTTbB4LhDPMu+++W649VYb3H3roIVmMuTZoKQ0bNky6JTkg2WL+/PlSjDgjZedpCm19B8BrrrkGixYtkm6bmr6TEfiZOPjRXdzU0K3LmTy7OVgnF3XVc6Rri2LGNR9OLq6//nq5v621SVlBJDY2Vrqe6bKl0DlCfCqzdu1anHfeeXKiwDJddP/VV0jPOeccecxeddVVchxoKJz4jBo1Sh43RuFn4e9B668muK7HllJPP/20Tbc8y5U9+uijUiDpgqaR4Go4XNi4aEja6qWyLDaqedjLJbo7cvES6wDlAU+vk2cYtw+9BB/MWYQ9B+qOPBx39w245bqLZNuZz75dKvPWHn9ppqzg/9Dkd/DaB/OxeNn68maiVt6Zrfm1RwcbN61j9INZ5bM1jHHjxsmZKgebmuDgR1cN3Sa2YIDFDz/8UOdASIGhYE2bNq1Odwrdf5dddhkWLlxoeIDlOtonn3wigx+sVHb/cJ2C1oPR1+Us+4477tDvuQ4snl1TjVEKGgddCjzFrHJQgi04wNI6pQBROBwtblb4O3BNjy2XjIobg0tYcJkTMSt05dGlx9f9888/ZQCQUXGgp+Kee7ROKPbCSRq7IFiDYWqC7klOJOqCFu3w4cPlBNCZ1nN9cLiwWQfv1mLWWyxErSFfN1a8xtBAX2Tl5GLJirVym8n7ZJce3ZEM8Hho0jsypL82OGCNFeK24KNnMOau66qsrd1z85VyzW3++5MRXqleJa26PQeOIMLTA3E26kPWRUtd5K2irzAOo8c4O6/LjfP333/LdYja4IBpTz85HisULAam1AUFlYECdVmDlaFbiQ1WrULNv6XLrbL7h4M83T9c4DfSA88qzK5gtVWGgzEjDSvDQX316tUYOHCgXN/kgGkEWhVjx46VPdacCSc5dbmyq3PzzTeXT1rouqMLj+45/qb8fRm8waja2267DceOHZPPsxf+Pa1Ae+FEp66goJKSEkP7kcc9vQO2Jos8V2ubhDoTx1ts+oJ3WzGIW0obPoO60l9bz/rwE63NhIeXWbokq3PJBX1xw5Xn4/4n3kJqWt3Rh0wjGHn9oCpra6NvuUKuuXHtzcqOfw5Kq46kiu/za54WyGKEGH2t0LpvFMag+4Qz88jISH2LbXhS0t1YVzsduq7s7d3Fk5NtTmpySVbGamEZhbNdBoxQhGhtVnf/8Puwfxgj6WjN2QvddbRmXAVbkxN2U6fY0a3VkGhOWm90HzoTWlm//fabYcuQz6engN+RLjx+1urMnTtXeiToBrQXigZf0x4Yvk8RrCsgiZMMI8cY4fHJ71X996PLtKmC5hwubEzOJuwszdqQDcUaUfnvvsP4deU6edvkY7uSBzsBnHV6V9z92HQZ/dhQlv3xF8Y994F+T+P/MnPxl40UgdoI0Xu2eeoCpzAGT5pTTqm7fREDOeyZbTLow56Qfiunnnqq3esZzO8xAkWNLi66dOr6TDNmzDAknBxUqltHTQVF7d133y2fnHAAZQDDoEGD8PHHH8ttDYV5gc6GVrXFYn/KEUWNLmqKSl2WKN1/dblfK0OrvLKLszbo8rYnNYdepfocMxRrBnPZO2F0Ng4fab08tUHcR+z0hqyvkW+z8zEupUKgpr01S15znc3T23Y0z5MPjUC3jm1w84MvyoCP+sDO3WOefg8TX/gIqelZMAdHoFX/q8vf87n0bCw3YLkFeGi72RELx/816Mphjg1P4rrgbLeuwAQrdUV0VYYCwXBmR8NBjy6cSZMm6VtqhzNjhorTMrUXawJxU8Lf8P3330eLFi3kfa6l0QJlvp5Rt2Nzg1YMJ2Z1eRGsUOyNRNpyomBPSD0nhvZaT3QJX3jhhfo9+/n1119lkI1Ri9YZOHykLZU532IwEK9cXM8vuEyIxrjkdMzJyQPlw9NHc10cO5GG8ZOnydvevsFisLO93vX8Y3fg+svPl8Egk16ZJQNF7IEFjp9/ay4uv/VJ/LFR86X7x56CNgNvQEB0a3ntHaBV639bWG7zsu07AP11sTfpAqewD56wjKZj1Q57oLDt3l3RDLY22HjSCF27dnW49cOZvz2u08rwcxtxFTW1sHFd5+233y631Bi+z8hURjYa+d7NFa4d2nI91gR/XyP7xd6Qerql7c2bY8oLXaM894zCQCjrOjOrsXCtuClw/Eirz6yp2qzRaITtliI8nJyBd4RoHCguhZcQkeg+F6LjlbejZT+t4Sjb2zz8+CvYd/AIvAPDhBV0ss84SwjOGT07YdSwS7F+y25cMWoSpkz7FOv/2oXsnKrJ3Lv2HMLML3/CrWNexnV3P4uFv6zRH9HISzyAI6t+QFFBHsyBoYg7f4gQN22g/TKnAK+m1e3+oPVK7LE6FBVwfchI8AMHBHsHhaKiirJt9sCwc3vW2ZwNXT3NpTQbgwpYVYWlxggHeLokGfmosA0DhGjROhpa+UYsKQa8sJII3fachNSW01mZ+q4zOxrHW2z6mlimfm0PGWKnT0/PxuS0LMQXl8Bk9kXMmYNwymW3ILS9Vv8tMKYdWvS9SN5evvpPDLl1LIaNmojpM7/D0tVaHhovbD8zYNh4Gb7P2yyLxfYzi35bjweeegcXDh2HS4c+ihG3PYUzBt8nBO0VmXi9a0/NM3hLWiKO/bkUxZYCePsHSnGj6JK1lkI8n1q7RVigB9GUuoCJ3pxgzlNdASOVMeJeNApnn/as8yk0WC/whRdeqOIm42/ZVAm7/3WY0G5kbZBw6YS/FwO34uPjZa4mo3Pr8lywkgkn8TxnqpeLayycJmz2ltFanmfBA8mZWKUHZAS17YJ2l96C4DanyvuVCRGPBbXtJm9z9vzEs1MR2rIj9iWWYPa8FZgw9UOZbxZm8sQtQQG4NsAfnWyUvuodFowTqRmI9DLhzMhQ3Ny7M14YMRiXtqtw2zwSEoRFsdHY1KYlevmYUZh2HGnHDiI/K12IWxDaXjQUftGt5XM3CeGcl13zLCtfF7RSBwTT/JdgWSlHWrm0/lgDkBejYcj8HCpdwz4Y2ckBsHpqBkWOs39GuSoaF1ZtaYglSDcmE9X523JdlIFO3377rSxkYM8aX2PjeGHTB/HcOqwT9mZ7U1hpbwuLis/19gtAXP8hiBVWmUmvXmKltLQEuZmpSInfB1N4C/hEt5FujflffYVrrrkaYx+biLkLF+Lzr7+Wz58cFoJHxOWpiFB8KcRpXkwUbhZCF6APkkfSszDhxsvw9azn8MGcl3DbgyOwYMlaLDmUgPN8zVgQG4VhfL7YO1klxbgswFfY8sUoseQhOyURmUlH4WHyRuv+V8M3XKvsvrqg5tlQnr4vyhyQ/vBfwZq/ZQQm0UoXeA0XukhYtooXViZROBYOcDNnzpRh6zUFKtDqZaFmVxwM3Zk//vjD7sCquuAkjwnitMyYpsKxmL87K/G4Cg4XNmvE1vHimiO3VtFKO5GBlbqVFty+G9pecgv8oyuqL5CSokJkpyYhNX4vcsV1abH2fL9WHRDU5WysW78RFw+8CM8+MwXfzp+HX3/5WT5+uphdWITFSFHiJcrkgdEhgZgvBGuwvx/+zcnDU1/8hAEjNXfkJXdNwea0TLwVGY43oyPRRszMU0qKkCUElZfWutVXatHW5yy5WUg7uh/FhQWI6nmu3OZfS2DICX2fFBuIZvuvQ58+27Qomgf8vbgmw2T22nKlOCiyVBZLNikaD649sxuHM9Zn2RKIifXr1q2TVVa6ddO8ak2Jw4WtqFhblD9qQ9iyhdg8mpyB6cJKSxG3TV5mYaVdg5g+A+BZ6WQoLMgTVtERpB7Zh3xhqZXZcGua/PxREtcNge17YMmyFXhs4uN4522tt1KQpwdSxOewChMvaULgistKMCUiRArYdQH+aGXylLeH+muzy31FRdiUbxFiWFplPSxOvJ6nOCGtwkpKxevTNWnJ0yIjO9VSkSShWPv8RgMW/sswmoo+eiOwcgMXr51xYekjFj5WnAx/J1Z7ocVsT0oLrTlabUzjUDQeTLmg+DgLuitZCo3J6E1dzs3xwlakFdE6ZkPY1gkLbb++3SdEWEaDhgsrLU7e5/pTQU6msIQOICPhkLCK7Eu29AqNgkfr7gjs3Bd+EZpbkDJSZmtpRohVUlEJdolZy9oCC0JNJpzh642bQwJwqpcJ68W2jmYv+Hic7DL0Y7WTSmInEfezE7VQ3j56wWZbJOiWmlX0mxpWkGcYMpttWt10bB64ZcsW3Hvvvc3WTUTxsVYhd/SFeWz21M/7r8HBjPU7mftkZD2UOW1M6GVFDEXjQKuNJdsc5ZKsCbop2cCVAURNhdMstoO2LLYSTRi8g8PR9uIbZRAGyRNWWVr8PmSdOCbde/XBS7yWd0stZ6KwugDpMP2gTFhtZ/macYGvD/YXFiG1pAiZ4rMmCSutq9kb+aXFSBbWnThL9b/SYN1LDxsFmL2y0+Xa3Rk1VPzPFKKWoa+tNbXFRsFi+xDmqDCUnh2mrXAWze7P//d//ycLyrpCaLvC9WGAiJFms5VhcBCTlxWNB70PzE/btm2bvsU58Lhgix7mLDYFDhe2Aj2IIr20FEeFdVSZrsIaIkVZaSgprAi2yM/OQCnFpIF4enkjyNtLWos1OQbLPD0QYfLAiGA/mfw9MjUbd6VlIVOI4VZLIdblW3C0UHyWSuJ4tLgMFiFQXgEVQmClODdDWGs1rylst2jfq0Tsj6ImroDNWoOMYqprDWTAgAF2VbV3JpwE0JI0grX9v6LxYf1NIwWgCY9Ddt/mMaloPChuLGXGnoPOzImkuN13331NsubmcGErKS0pt0x2CIuoMt18vOGvG0LZR/ZqNwTePsbWUmqjKCAMfwlx9dQroNiiQIjM9KJSuY7TT/zA737wPr5d8A3iLrkUL2bk4MHUTAw5noabk9JxR0oWJmVkw+QfLIWzMiUFecgXFurZtfRn26bvA7r6mhJGMLG0UV1FUIl1gb+pOkkToxU2CKswKNdW48LJB8t8cb3sueeeM1Q1gzB5+6mnnlIegkaG4fojRozApZdeKgs7G81xsxfWWeW409g4XNhIvkUbkGgBVaevvhaVebiikafZt/4dZavjGRKFn/PyhcVmW9gShOg+lpqFVSnpuO/+ezFmzMNoL06qVmJAHDt2DKZNfx3dunbB6ZFROHvo7QjpewHyhaiV5GWhJL9qCa3i7HR5Xdv62harsBkcpB0Ni/gaSXZ2Rn1EI5XLeeLV1LerJjhIsuWLovFgpQy2YmHI90cffSRLKhmpZUl69uwpRVHR+DDQg9Ybk67p0WHbJ0dacSaTqUk6TDhF2PJ062STpQj51SIaz/fT1qks6UmwZGnC4KXXgnQEXsER0kpKtOHa/C23AGOFBebj5y/LXH36yWdye4vYWCxetBg7d/+DCwYMQPs2bRDXuQfi/jcA/YePwo3PvYWw9l2Qd6RqHUKPzGT0NgsrtIZIsL3icySXaN/fuk+aAlox9ckxqc36YYJz9QTcumD1A3thzUcjQkgobPZWO1c4B7qwN27cqN+zD3oIGE3XVOsxCq3c2eTJk+U4wfOe3hoWNWZtT6NLAtXh6zV2X0CnCFtuXp6ctdFW2VDNauvra0aoXhQ4S7favMxmeDio8j3TBoIDQvC7Xn0/vbgEP+Xk4/4T6Xg3KxeDzj0f5zz/Pgb2PUcuoC5YsFA+j/AECw0LR3FOLkz+VVvj+IeGwRwWq9/TKMjJwFk+NVejWJWvfXdaa8UOWEOsL8wxcvR6GS069luyFx4PPHnshS4to00dGXbOxo2KpoO/MUswcUA0AidJY8aMUVVJnACjVq3Rzwweqwt6S1jPk25Kjh2sOMJC1lxDrY/IMR+VkZKNiVOEjeTo+V1/5J1s1g7Qrbas+H/lNWF9SCNobkDb7sbi6NaYK8SMSeC3J2fgw+w85Ijf48Zb70X4cK2detQtD6BjYBC+ED900vEkjLrjDlx+hVZoOScnC97BFcnBGUlJSNqzCz5RFQnkhRkpMtftLL+aB/c1+ZrfOtvguoOrwMaKNWE0z4ypBUaLo7I2ndEyQBwYXSFB9L8Mo2o/+OAD2WvOCKoqiXPg+r7VPczGpEZb0jDYhJMOWl6s2GM0SIgGA12SjYnThM06mLOOYoKe22bFKmwlBbko1NepvA0IGyMoc/b9LaworWp4dcyhUTBFtcZxDxNMfoHw8zTh8tHj4dO3qq+3zzU3ITs7B98tWIBCi0UW+mSty9wcMZhGV9SNXP3lR/CJrRrSXJiWKLuER9bwg63ML0CaED6+nlXkmxMUlNqaHnKxv6aySbbYuXMnVqxYod+zD7Z04W9ihA4dOji0XBar0R84cECuAakB135oJTAowQgcAK+88ko8/PDD+haFI6BL3xrQx6r9DUmeZlPY/v37y4Ahe603rpXX1UTX0ThN2CyFheUBE9/kVl1fauPthQ5emiDkp2jVHLwMCFuZnivnHxwBs95Cpjp+cR0R0PUseIpZ40Xnng9zl5PXXnzP6o/ukZH4+ptvkZaaipuHD8ffW7ZI68IUoyWOH9y6CTnpqfAOCpP3SWlJEYozU3Chr+0IQ/7g87K175yVnV0v892R8KAyGq1GUfniiy/0e1XhAN+3b1/9Xt1wMZoNNY1+BrbMWCAmHUaCETgzZBSWvR2va4OzW7rVmKfFyL0ff/zRperhuTL8rZmga8T9TOjeprCpqiTOgZMHnhsNiVTkb8rzwV7LjdHNjdHdvDJOEzaSkaVFtS3PL0RqtcHpPN2Fl5eqC5udTfCIXI8TVhjX08y+NbvDCo4fEjOVAoRedJW+5WR6XHQlksXAv3TJEqwUg3mfM86Qprs5NEJYW2VY//Wn8NMTv60UpWmzj/665VmdPwsYvKIFjWRk29fk1JnQpbhv3z79Xt2wEjgHpZqEiFFORtqPsKIJc2bqA9cE9uzZo9+zD/rzaWE1ZL2Gs1rWvaMFSFgqigEz6emah0FRN3Rhvfvuu4bTNliV5Mknn1QWspNg416e3w05P/jb2tvUl8/jJLUxcaqwMRKQlhuZq1swVvr5aqJQkJIgr7287bfYPL197LLwrEWLF78wAWnzZ8LDxszf538Xo31YuGxpniEGLZ6EAXqu16rPP4JnQCg8faq+F1vYdPKp2Q05O0tzPdJaMxr67CxYI86eMF6W2xk1apQ8cGvinnvusXsxmG4QhoPXtl5XG2yRwRp3RtfaGB3JyuNGk3+5WE53C9+z8ndMSUnB1KlTDVsg/3VmzJghQ8qN0q9fP1lyS+EcuJ7JKMiG5A/m5ta9xFLXkoazcKqwkbQMbYa7It+CA5XW2qK9TGgtrLSi3CwUF+QKK8xDWGD2R9mxhFZdsAsAE6vZyHTxmpX46fG7kfH93CpVRUivPudg69ZtMrjh0N69CA4IRNLBfTi2cwv8Yqv+8EzKZk7bJTaSslk8eXZmjrTWWLg5LTNDf6TpoRutrhpxjBJluZ3aRI0tSRgtZQ8MHpgzZ06Dayyy7hxzpIwGI7DtDS0+hp+zmjxFqyboYnzvvfdkJCattcoRnzw5X3rpJWnB1UXlMmV1wf5u1u7SzoJWT12NIRsCLdnakv5p9bOHV32qknCCxTVOezHaL4/rTUZh9KaRQAhan86En6eu3oK2uq7TJTl48GC88cYbtZ4XtdGyZUUcQk1s374dP/+sdV1pTJwubLTarGttMzOrKnxPkxbVmFdutdkvbB52hJqbfAMQ1PkM+J/SSzzfD8lc61n+C36aeCdS5ryL0nSt43LIlcMQERCAuZ/Nwerly+DXuiNWznobvq2quiCJRXednqsL24b8Qtn9+86kNIw8kY7v8yzioNHcpYHVUgaaElo+7JlUk+VDUWclgtpEjQM+fev25K9RhChokyZN0rc0DL4OrWprI1t74QDJ9UBG6bH6P8PQKXS0YHlhQiqTjDdv3oz777//JEuU+4szW1qddcGoMSPuHQ6QLB5sxOVmNBqVM3I2VrWXyy67zFCSOz97XVF2tNhmz55teGLCggJc4+RaZ10YXfclXMczIpyEbngjAmo0SpdiYaQJLvfRkCFD9Hu24fqWLc+Rdb2Nng2jkcQsu1dbniuhl+P111+vt7emIXDqMUW76TwsRYUIETPZZDEo8Q2767lfmaVlMs/NOzAEAdGtUWTJR7HuPqyLkux0hLTpLP+msFpFkOqYfP3gGx0HD29faW3lic+zN+Eotq38BaYtaxAoDDi6FVdu3CAGvhSkpKYgt9RD/E3VH65MHBz5h3ehu7cJBWWleC0tG0sLLDhcLLaL1+ABeZOweHgQcZbkLwYg5q85sx6bETiQc3bGAaB6exFaKFu3bpUzrOrwoKcw0FqzZxDm96Urb+zYsYYDRmqCr8mZHz8/K1XUJ3yY35mizMEjLi5OXmJiYmR0J0/y6lAEWaSXhaHrghYfk5M58Nl6rZrg4MAKL4y8rMvNyQF+ypQpiI2tmk9ZGxR2fiYKIiNMa0uSZ9eHF1980ZB7ivuUxbM7deoky6DV9Ppc4+Xn4D43Ai3aq6++Wn5nvj4Hy+pw3/M3MtphgMcCq27ws3PwrW3fcJ9wckMRMXLssX4pRSA1NVVGBtcGzzPufyMWtnX/U0ATEhJsHkMsa8WSerYmRNxf/G5sOcToRa6H1wXHAHow2Ay4pv1tDR5iPlxTwE/VKCF7EWFhCA0OkW84NTwYPYS4xRcV4+GUTAS27ICW516GvMw05KTWfHAVpifDHKbNqPMO7US7gUNlZ4Cc1CS5zR7KSktQKCzEQvF3LGDsobslWaHf2vXbZPKSEZXCPJCuR3H0yPW6oowT5WW0KtNLHFg333oLrrv+en0LsOj7HzB2zBhpYRw6eqTJIyOt8KDkCXrbbbedlGDNGTUXeWnRcJbHk5KDBgdFe5Ox6XKidcWmk86CrXUYHOKspE/+VrTgHnzwQWzYsEHfejI8aSk2dDcFCIvfyKBaHb4no3E5+eCEwLrY/sADD0hLkoLA3676hMQIPBYZ/LJ27VpMnDhRbmMZJVbZp4DwOzQEfgdav+zWzNevHjDASDwKEIMX6gM/Pwdfeh/4PoxWdcR+IXxtTmSWLFkizw3CwZui6qj34JoUxY2/L38DwjVgVsFnkBL3iz21XGvCegzRnc79b30PWuxcEmAt1drgPuC+ZcDPwoULbYbo0zrnucc10Jr2B/cj2+M0laiRRhM20iomFr4+PggS7zo9MhRRXiYMSUyFOTgC7QYNlz3Y2GC0JrL3boGHyRu+LVoj7+BOdLz6rpOEjfUcS4sKhBCJS3GhTA0oE1aTvAhRK78tLuDFBh5C2KQQiefXBGd7115/HW4WFtqpNUQIPnDvfVjyyy9IFrO1rJzGDXetC5bM4ezf6Ay6JjhD48nD12yMnBXObmlNDR8+3C7XqL1QmN98800Z9FCXtckJgFH3V10cPHgQQ4cOlcJKmA/GpGVHYn0Pwq7K9W07UxPVv0NlPvvsM7mO25BJAMWZlhstLUdDlzwtEcJUE1oyjoSfnR0NuOZNmPhMd6uRnNC6qP4e1YWNAXLc/+ylVxP0kNDrRPc9obVHy47iW9Nvx79ZvHixdN1TIJuShk1BDJKUfEK66bKFZryQng2LEI9QISKFOVqQRfXq+dXxiWiF4sxk5Oz5S4iXBQkbliJl6x/I/nczMravQcaWFcj+50/k7t+G/KN7YDl+SFhnx1CUnoTirFSUiPcpzc9BGXu+1SBqRIpeLaJ2ep/Tsfz33/Hs1KlS1Das34DZH8+S15Wr+A+/aYS8DnDgwOsoGPnH+m0cODmYSyE3CGd4dG+99tpr0j1Iy6KxEjF54lCcu3fvLt/fmlxfH6yWKltsdO3aVboUHeVCVVSFFhtdiorGg+dk5YLiTK7u06dP+bqzrfOGHhrrmjEvvXr1kqWxbIkaX5uTAHovWPOzqUWNNKrFRnzMPsJyi5E7qL+vGSmlZdhdWIT2l98my2qlHD45Z4lWV+7h3VKcbBETHY22bdtId0pYRAQioqLlj9LulPZo17Ytwqv16eKMhqH96RkZSE9Lw5HD8UhIOIZZQpx8w2MQ2qEHTL6BSN25DgVpSXh6yjMYOWoUfvj+e4wb8wheefVlYa3dIINi7rtntJypPPPss+jarav+DhX06t5DuiAOHqn/wNsYMGiA6wecrXJmRiuo8iySn52DPQ9iujroMuNsv7HzU2qDaxO0FNjxmusKdKXye1R3o/L3oMuG+XpMRP/yyy9d6nsoFI6EE1irZc5gKLpCP/zwQ/1R7byhKPHC/FQGD9Gaq+5+5eSX5w4n71wzpceC695NEc5fF40ubITRgi309ZGWJk8klJQirv8Q+EW1RPLBqkl/NCT8AkPEtLpQmy3wUlYqRGc9xtw6Arc+cH+DXVGpwpKk0A2/cQR8Op6J4DaaiyN521qk792C226/HZOfeVpuO+uMvrj6qqsw/rGJ8gflLGbAwIHyMVvcdfsdWLliBZJShKVpR96HQqFQKBpGo7oirbB2Ymq61pKE3a5JYW6mFC4Pz6oRR9Sx/BxhRgtLzyQEzhwSKQWQlpXJo8wh6ytWN1ykmOGXlWmfh9s89T5x8ZVcJ7RomA9WWGjBkGuvlbOXiwcMxCUXXYzJT03CL2IGU7lpX8eOWuUK/1oqpCgUCoXCcTSJsJGMrCwhbhURhqWF2tqUp7DgqkNxK8jOQE5KIjKPH0baESEsRRYcS9ByyhqKdXmJ1leBENGsEwlIjd8LS4H2mY5UKsR7Wu9eMjSY7kfCjgC/rViOX5f9hqkvPI/LBg+usijbpbMWulvbQq1CoVAoHEeTCRthLcls3T1XUmTN9aJ3tG48vXxx1EHCJqRN/h8QGCgrobDPGjsIeOoJ45XrLHLthtFCRbqwEYa3MnBk699/l1fRJsXidqdTtSRvT6qzQqFQKJxOkwobydVbupToQmHv8O9pNuNYkmMj8Hx9feBdKfnS06fCfWiN9otu0UK6H7kmRxITE7F/334haIXYt3efrF7y119/ycdyc3NkAIbZ21v2blMoFAqF82lyYSvRq+BbXZH2Dv8e3j5ISrUdJVlfKEI+3tXW+PSoIOs6W6CexJp0/ASOHYmHR1mpsOI6olu3rhgw8EJcM+RqtG/XDnlCsDMzMmT0XaGw3ArLLVKFQqFQOJMmF7YyIQzE6oostVHTzBYmYU1lZmXWWPvQGJqdaDb7iB1SLSTfpOXW/bN7Nw4fPIBMPeiFVesLhOWWm5ODdCGwlS9pKclIPHpUuivX6Nn/1nqZCoVCoXAuLiBs2jUTrstKy2R1EHsJ8A/Avr179Xv1x7r85e/vB69qwuahl7jh+3DNLEW3Eplh/9GHH+G556ZiwviJ5ZdJkybj4IGD8jknkpMx55PP5G17WjwoFAqFouHQ7+b0Isi1wQTA0OBgTdg8PVCmW0j24JGXgW5dOqNb9+76lvpBq88iLKrDh+Ox6589KPIN0R8BijJTZJ1ICtOiRYsw57M5cjurJ+zatRtH4o+gpLgYAy8aiIsuHiiLjUZGRcpiwlOenoLklBRkZmch1yGWpUKhUCjqgrZKk0c1dGhbUU3cw8sMn9h28I2su1dS/pF/cNM1g/HU5Mn6lvqRmpKMjLQ0rFq1GrM++xz5ERW181jxpChNK8xs8jIhMSkJFkuhrNrPahxtWsXBW1h1PmYzWsTESKFOFa+VnaV1zmbO3gkhbvUpWaVQKBQK47iEsAX4+SMqMhKmSuVbGBzi26ItfKJqFrj844fQIy4S875uWCNLuS6WmoKtW7bi2eefR5E5CCXCSmNAi6wrKSgSVln8sZObJbKFhZ+vrxQ3bXdqsP5gXn4eSly4jJZCoVC4I02+xkZyhQBQNJjXZqWsyCILGWfuWIuC5KM2195MZj/sd8Qam6cmSEEhQcjNzkZhagJKctLLRc1SWCgLONuCRZ1ZKis9M1NcMsov2bk5StQUCoWiCXAJYSN067ESCXuXVW7xQoErOLoXmdv+QM6B7bCkJMr1OMI8M/ZlStMDOuqLtdBnkN4natQdt+P5F6bCP1AL7acrkeKmUCgUCtfHZYTNCi0g9i+LP3ZMBl2UV8QvK0VxZopcV8sSVlzG1tXIO6wVTN68WUuIri+een1Ka47aiOE3ypqQLaJbyPtWi06hUCgUro/LCZuVouIipKSlSQvuRGoKCioVFpaUFqPUokUabt64UV7XF2ur9+qt03v06CGvvU3172qrUCgUisbFZYXNCqMJs3NycOx4orTijiefkBYdRY8Xwt5gDcEqbFas1fnPP7+/vK7ez0uhUCgUrovLC1tlaMUxH4xrcHRT8kJ27thRpVWMUUx6Ejah1WatC3naaT1ljUeG8isUCoWiedCshM0Weflajcm/t/wtr+tDZYvNx9cXKSkVwSgmkyd8VcsZhUKhaDa4gbBp62x/rF4lr+uLl7dW8cRfWGysQWnFW2xn1GR1d6VCoVAoXJNmL2zWUlXLly2T1/WFAkb8/P2Qnqa1pPlh0WJZZYR4VEq+VigUCoXr4hKVRxpKXGwsfMw+WLfxT0RFRelbjZFyIkm2mZkwYSK2bd2mb9VgAnZSSrJ+T6FQKBSuTLO32EhunrbO9vuKlfK6Pvj5+8vr2JgYec38Oa7fJQrBU6KmUCgUzQe3EDbrOtvKFSvktVEoYvm6S7NVXJy8Zu4cRc0anKJQKBSK5oFbCBvLXbHo8B+rV+PrefOx1876kYWsAZmYiIP79ko3JPHUm7N5erjFrlEoFIr/HG6xxkbCQ8MQFlLRRy04OBi9evfGab16IbZlLFq2bIWoqAiEh0fA09MDe//9V/ZUSxTCduzoMeze/Q/27Nmj/zVkEnjlmpUKhUKhaB64jbB5e3mjZUwMvBwQlp9fUICEJK0Hm0KhUCiaF24jbFbYF83Xxxc+Pmb4eJtlGH/1HDQWWmZLmdJS/bqkVL9fKqubMApSoVAoFM0TtxM2hUKhUPy3URESCoVCoXArlLApFAqFwq1QwqZQKBQKt0IJm0KhUCjcCiVsCoVCoXArlLApFAqFwq1QwqZQKBQKt0IJm0KhUCjcCiVsCoVCoXArlLApFAqFwq1QwqZQKBQKt0IJm0KhUCjcCiVsCoVCoXArlLApFAqFwq1QwqZQKBQKt0IJm0KhUCjcCOD/AThL6fpNInlkAAAAAElFTkSuQmCC;" vertex="1" parent="1">
          <mxGeometry x="728.22" y="191.99999999999997" width="119.56" height="35.48" as="geometry" />
        </mxCell>
        <mxCell id="0LWopOkagk5XhUzyKvVM-13" value="" style="image;aspect=fixed;perimeter=ellipsePerimeter;html=1;align=center;shadow=0;dashed=0;spacingTop=3;image=img/lib/active_directory/generic_server.svg;" vertex="1" parent="1">
          <mxGeometry x="610" y="100" width="78.4" height="140" as="geometry" />
        </mxCell>
        <mxCell id="0LWopOkagk5XhUzyKvVM-14" value="" style="shape=flexArrow;endArrow=classic;html=1;rounded=0;entryX=0;entryY=0.5;entryDx=0;entryDy=0;" edge="1" parent="1">
          <mxGeometry width="50" height="50" relative="1" as="geometry">
            <mxPoint x="420" y="169.66" as="sourcePoint" />
            <mxPoint x="599.9999999999948" y="170.1600000000001" as="targetPoint" />
          </mxGeometry>
        </mxCell>
        <mxCell id="0LWopOkagk5XhUzyKvVM-20" value="&lt;div style=&quot;forced-color-adjust: none; color: rgb(0, 0, 0); font-family: Helvetica; font-size: 32px; font-style: normal; font-variant-ligatures: normal; font-variant-caps: normal; font-weight: 400; letter-spacing: normal; orphans: 2; text-align: center; text-indent: 0px; text-transform: none; widows: 2; word-spacing: 0px; -webkit-text-stroke-width: 0px; white-space: nowrap; background-color: rgb(255, 255, 255); text-decoration-thickness: initial; text-decoration-style: initial; text-decoration-color: initial;&quot;&gt;進行遷移&lt;br&gt;&lt;/div&gt;" style="text;whiteSpace=wrap;html=1;" vertex="1" parent="1">
          <mxGeometry x="440" y="180" width="160" height="220" as="geometry" />
        </mxCell>
      </root>
    </mxGraphModel>
  </diagram>
  <diagram id="qktrCl3zxsirdalAaf0i" name="第 2 页">
    <mxGraphModel dx="1434" dy="844" grid="1" gridSize="10" guides="1" tooltips="1" connect="1" arrows="1" fold="1" page="1" pageScale="1" pageWidth="1169" pageHeight="827" math="0" shadow="0">
      <root>
        <mxCell id="0" />
        <mxCell id="1" parent="0" />
        <mxCell id="43_h1_ifX0QBfTOUGxvP-1" style="edgeStyle=orthogonalEdgeStyle;rounded=0;orthogonalLoop=1;jettySize=auto;html=1;" edge="1" parent="1" source="PnhBVtUzmUO4fCHfvlvV-3">
          <mxGeometry relative="1" as="geometry">
            <mxPoint x="240" y="360" as="targetPoint" />
          </mxGeometry>
        </mxCell>
        <mxCell id="43_h1_ifX0QBfTOUGxvP-2" style="edgeStyle=orthogonalEdgeStyle;rounded=0;orthogonalLoop=1;jettySize=auto;html=1;" edge="1" parent="1" source="PnhBVtUzmUO4fCHfvlvV-3">
          <mxGeometry relative="1" as="geometry">
            <mxPoint x="400" y="360" as="targetPoint" />
          </mxGeometry>
        </mxCell>
        <mxCell id="43_h1_ifX0QBfTOUGxvP-3" style="edgeStyle=orthogonalEdgeStyle;rounded=0;orthogonalLoop=1;jettySize=auto;html=1;" edge="1" parent="1" source="PnhBVtUzmUO4fCHfvlvV-3">
          <mxGeometry relative="1" as="geometry">
            <mxPoint x="570" y="360" as="targetPoint" />
          </mxGeometry>
        </mxCell>
        <mxCell id="43_h1_ifX0QBfTOUGxvP-4" style="edgeStyle=orthogonalEdgeStyle;rounded=0;orthogonalLoop=1;jettySize=auto;html=1;" edge="1" parent="1" source="PnhBVtUzmUO4fCHfvlvV-3">
          <mxGeometry relative="1" as="geometry">
            <mxPoint x="710" y="360" as="targetPoint" />
          </mxGeometry>
        </mxCell>
        <mxCell id="PnhBVtUzmUO4fCHfvlvV-3" value="可復現容器化 Jenkins" style="image;sketch=0;aspect=fixed;html=1;points=[];align=center;fontSize=12;image=img/lib/mscae/Docker.svg;" vertex="1" parent="1">
          <mxGeometry x="380" y="490" width="158.54" height="130" as="geometry" />
        </mxCell>
        <mxCell id="PnhBVtUzmUO4fCHfvlvV-5" value="生產環境" style="image;aspect=fixed;perimeter=ellipsePerimeter;html=1;align=center;shadow=0;dashed=0;spacingTop=3;image=img/lib/active_directory/generic_server.svg;" vertex="1" parent="1">
          <mxGeometry x="660" y="170" width="86" height="153.57" as="geometry" />
        </mxCell>
        <mxCell id="PnhBVtUzmUO4fCHfvlvV-9" value="開發本機" style="points=[[0.35,0,0],[0.98,0.51,0],[1,0.71,0],[0.67,1,0],[0,0.795,0],[0,0.65,0]];verticalLabelPosition=bottom;sketch=0;html=1;verticalAlign=top;aspect=fixed;align=center;pointerEvents=1;shape=mxgraph.cisco19.user;fillColor=#005073;strokeColor=none;" vertex="1" parent="1">
          <mxGeometry x="190" y="217.57" width="106" height="106" as="geometry" />
        </mxCell>
        <mxCell id="PnhBVtUzmUO4fCHfvlvV-10" value="測試環境" style="image;aspect=fixed;perimeter=ellipsePerimeter;html=1;align=center;shadow=0;dashed=0;spacingTop=3;image=img/lib/active_directory/generic_server.svg;" vertex="1" parent="1">
          <mxGeometry x="520" y="170" width="86" height="153.57" as="geometry" />
        </mxCell>
        <mxCell id="PnhBVtUzmUO4fCHfvlvV-11" value="開發環境" style="image;aspect=fixed;perimeter=ellipsePerimeter;html=1;align=center;shadow=0;dashed=0;spacingTop=3;image=img/lib/active_directory/generic_server.svg;" vertex="1" parent="1">
          <mxGeometry x="360" y="170" width="86" height="153.57" as="geometry" />
        </mxCell>
      </root>
    </mxGraphModel>
  </diagram>
</mxfile>
